<svg width="40" height="35" viewBox="0 0 40 35" fill="none" xmlns="http://www.w3.org/2000/svg">
<defs>
<linearGradient id="paint0_linear_819_5163" x1="-0.00882761" y1="34.0937" x2="39.7252" y2="34.0937" gradientUnits="userSpaceOnUse">
<stop stop-color="#DDDCFE"/>
<stop offset="1" stop-color="#B1AFE9"/>
</linearGradient>
<linearGradient id="paint1_linear_819_5163" x1="10.7758" y1="37.1138" x2="8.9271" y2="24.9125" gradientUnits="userSpaceOnUse">
<stop stop-color="#DDDCFE"/>
<stop offset="1" stop-color="#F7F9FF"/>
</linearGradient>
<linearGradient id="paint2_linear_819_5163" x1="8.68277" y1="29.0257" x2="14.8204" y2="42.5579" gradientUnits="userSpaceOnUse">
<stop stop-color="#DDDCFE"/>
<stop offset="1" stop-color="#B1AFE9"/>
</linearGradient>
<linearGradient id="paint3_linear_819_5163" x1="30.9797" y1="35.0868" x2="32.0889" y2="26.6569" gradientUnits="userSpaceOnUse">
<stop stop-color="#DDDCFE"/>
<stop offset="1" stop-color="#F7F9FF"/>
</linearGradient>
<linearGradient id="paint4_linear_819_5163" x1="32.972" y1="26.2786" x2="28.3873" y2="42.1772" gradientUnits="userSpaceOnUse">
<stop stop-color="#DDDCFE"/>
<stop offset="1" stop-color="#B1AFE9"/>
</linearGradient>
<linearGradient id="paint5_linear_819_5163" x1="20.0922" y1="-0.0701925" x2="20.0922" y2="28.1041" gradientUnits="userSpaceOnUse">
<stop stop-color="#0D1748"/>
<stop offset="1" stop-color="#1B237E"/>
</linearGradient>
<linearGradient id="paint6_linear_819_5163" x1="19.8439" y1="2.76426" x2="20.0851" y2="6.91203" gradientUnits="userSpaceOnUse">
<stop stop-color="#0D1748"/>
<stop offset="1" stop-color="#1B237E"/>
</linearGradient>
<linearGradient id="paint7_linear_819_5163" x1="11.8915" y1="36.1077" x2="12.1133" y2="29.3785" gradientUnits="userSpaceOnUse">
<stop stop-color="#EDD05E"/>
<stop offset="1" stop-color="#F3CD37"/>
</linearGradient>
<linearGradient id="paint8_linear_819_5163" x1="26.9454" y1="36.6039" x2="27.1672" y2="29.8747" gradientUnits="userSpaceOnUse">
<stop stop-color="#F9B566"/>
<stop offset="1" stop-color="#F94E33"/>
</linearGradient>
<linearGradient id="paint9_linear_819_5163" x1="9.12906" y1="33.8077" x2="10.7064" y2="27.2517" gradientUnits="userSpaceOnUse">
<stop stop-color="#F9B566"/>
<stop offset="1" stop-color="#F06C49"/>
</linearGradient>
<linearGradient id="paint10_linear_819_5163" x1="31.8724" y1="34.1536" x2="29.605" y2="28.2879" gradientUnits="userSpaceOnUse">
<stop stop-color="#FBCD1B"/>
<stop offset="1" stop-color="#F06C49"/>
</linearGradient>
<linearGradient id="paint11_linear_819_5163" x1="19.876" y1="24.0131" x2="19.876" y2="32.1346" gradientUnits="userSpaceOnUse">
<stop stop-color="#FDE06F"/>
<stop offset="1" stop-color="#E6C547"/>
</linearGradient>
<linearGradient id="paint12_linear_819_5163" x1="19.8763" y1="-1.06143" x2="19.8763" y2="5.24891" gradientUnits="userSpaceOnUse">
<stop stop-color="#EFD366"/>
<stop offset="1" stop-color="#E8C74A"/>
</linearGradient>
<linearGradient id="paint13_linear_819_5163" x1="23.832" y1="19.1326" x2="25.2115" y2="19.1326" gradientUnits="userSpaceOnUse">
<stop stop-color="#DDDCFE"/>
<stop offset="1" stop-color="#B1AFE9"/>
</linearGradient>
<linearGradient id="paint14_linear_819_5163" x1="26.2557" y1="16.9897" x2="28.0192" y2="16.9897" gradientUnits="userSpaceOnUse">
<stop stop-color="#DDDCFE"/>
<stop offset="1" stop-color="#B1AFE9"/>
</linearGradient>
<linearGradient id="paint15_linear_819_5163" x1="26.5385" y1="12.6752" x2="28.2875" y2="12.6752" gradientUnits="userSpaceOnUse">
<stop stop-color="#DDDCFE"/>
<stop offset="1" stop-color="#B1AFE9"/>
</linearGradient>
<linearGradient id="paint16_linear_819_5163" x1="20.527" y1="20.1072" x2="21.1116" y2="20.1072" gradientUnits="userSpaceOnUse">
<stop stop-color="#DDDCFE"/>
<stop offset="1" stop-color="#B1AFE9"/>
</linearGradient>
<linearGradient id="paint17_linear_819_5163" x1="16.1719" y1="19.4457" x2="17.3842" y2="19.4457" gradientUnits="userSpaceOnUse">
<stop stop-color="#DDDCFE"/>
<stop offset="1" stop-color="#B1AFE9"/>
</linearGradient>
<linearGradient id="paint18_linear_819_5163" x1="12.6702" y1="16.0058" x2="14.559" y2="16.0058" gradientUnits="userSpaceOnUse">
<stop stop-color="#DDDCFE"/>
<stop offset="1" stop-color="#B1AFE9"/>
</linearGradient>
<linearGradient id="paint19_linear_819_5163" x1="12.1938" y1="11.8612" x2="14.1601" y2="11.8612" gradientUnits="userSpaceOnUse">
<stop stop-color="#DDDCFE"/>
<stop offset="1" stop-color="#B1AFE9"/>
</linearGradient>
<linearGradient id="paint20_linear_819_5163" x1="14.0595" y1="8.1623" x2="15.5825" y2="8.1623" gradientUnits="userSpaceOnUse">
<stop stop-color="#DDDCFE"/>
<stop offset="1" stop-color="#B1AFE9"/>
</linearGradient>
<linearGradient id="paint21_linear_819_5163" x1="18.0466" y1="6.25597" x2="18.9682" y2="6.25597" gradientUnits="userSpaceOnUse">
<stop stop-color="#DDDCFE"/>
<stop offset="1" stop-color="#B1AFE9"/>
</linearGradient>
<linearGradient id="paint22_linear_819_5163" x1="22.5725" y1="6.46222" x2="23.7994" y2="6.46222" gradientUnits="userSpaceOnUse">
<stop stop-color="#DDDCFE"/>
<stop offset="1" stop-color="#B1AFE9"/>
</linearGradient>
<linearGradient id="paint23_linear_819_5163" x1="25.7804" y1="9.46732" x2="27.5565" y2="9.46732" gradientUnits="userSpaceOnUse">
<stop stop-color="#DDDCFE"/>
<stop offset="1" stop-color="#B1AFE9"/>
</linearGradient>
<linearGradient id="paint24_linear_819_5163" x1="26.0437" y1="18.7973" x2="40.0015" y2="18.7973" gradientUnits="userSpaceOnUse">
<stop stop-color="#EED161"/>
<stop offset="1" stop-color="#EDCB48"/>
</linearGradient>
<linearGradient id="paint25_linear_819_5163" x1="35.3114" y1="21.6447" x2="40.0016" y2="21.6447" gradientUnits="userSpaceOnUse">
<stop stop-color="#0D1748"/>
<stop offset="1" stop-color="#1B237E"/>
</linearGradient>
<linearGradient id="paint26_linear_819_5163" x1="14.4881" y1="13.7863" x2="15.8433" y2="18.4436" gradientUnits="userSpaceOnUse">
<stop stop-color="#F9B566"/>
<stop offset="1" stop-color="#F89E44"/>
</linearGradient>
<linearGradient id="paint27_linear_819_5163" x1="14.393" y1="18.4421" x2="14.6939" y2="19.4763" gradientUnits="userSpaceOnUse">
<stop stop-color="#FFDF62"/>
<stop offset="1" stop-color="#F89E44"/>
</linearGradient>
<linearGradient id="paint28_linear_819_5163" x1="20.4077" y1="13.7074" x2="22.6263" y2="22.5817" gradientUnits="userSpaceOnUse">
<stop stop-color="#0D1748"/>
<stop offset="1" stop-color="#1B237E"/>
</linearGradient>
<linearGradient id="paint29_linear_819_5163" x1="21.5677" y1="16.999" x2="19.9761" y2="12.8995" gradientUnits="userSpaceOnUse">
<stop stop-color="#FBCD1B"/>
<stop offset="1" stop-color="#F89E44"/>
</linearGradient>
<linearGradient id="paint30_linear_819_5163" x1="20.5948" y1="15.7365" x2="19.8696" y2="12.0067" gradientUnits="userSpaceOnUse">
<stop stop-color="#F9B566"/>
<stop offset="1" stop-color="#EE5D3A"/>
</linearGradient>
<linearGradient id="paint31_linear_819_5163" x1="20.4867" y1="13.8758" x2="18.7859" y2="7.70127" gradientUnits="userSpaceOnUse">
<stop stop-color="#F9B566"/>
<stop offset="1" stop-color="#F89E44"/>
</linearGradient>
<linearGradient id="paint32_linear_819_5163" x1="19.7183" y1="14.4716" x2="20.0527" y2="19.1528" gradientUnits="userSpaceOnUse">
<stop stop-color="#FBCA6A"/>
<stop offset="1" stop-color="#F89E44"/>
</linearGradient>
</defs>
<path d="M19.8621 34.6095C30.8317 34.6095 39.7242 34.3759 39.7242 34.0876C39.7242 33.7994 30.8317 33.5657 19.8621 33.5657C8.89257 33.5657 0 33.7994 0 34.0876C0 34.3759 8.89257 34.6095 19.8621 34.6095Z" fill="url(#paint0_linear_819_5163)"/>
<path d="M12.7343 7.1575C12.2124 6.904 11.6011 7.45573 12.6747 8.55918C13.2413 9.14073 14.2702 9.43896 13.9571 9.82666C13.6439 10.2144 12.8536 9.79684 12.1379 9.34949C11.4221 8.88723 10.9897 8.79777 10.9002 9.30476C10.8108 9.81175 12.1528 11.3924 13.8229 12.2274C15.493 13.0625 17.4315 13.7186 18.5796 13.6589C19.7427 13.5993 19.8471 12.8686 18.4902 12.4213C17.1183 11.9739 15.7763 11.4818 15.4781 11.0941C15.1798 10.6915 15.3886 10.3187 15.9552 10.4828C16.5219 10.6468 17.67 11.3924 18.4007 11.124C19.1165 10.8556 18.1472 10.1696 16.2982 9.30476C14.4343 8.41007 14.2553 7.90307 12.7343 7.1575Z" fill="#FFF5FA"/>
<path d="M17.5807 16.3729C16.2238 15.7615 14.7624 15.2098 11.3477 13.1371C8.52943 11.4223 7.33651 10.4829 7.47072 11.7802C7.63474 13.3906 11.1539 15.0905 12.5854 15.8808C14.0169 16.686 14.6282 17.6702 14.4791 18.3412C14.33 19.0122 13.9423 19.385 12.0485 18.2965C10.1548 17.2229 9.69253 16.8501 9.36448 17.7895C9.03642 18.7289 11.3626 19.9368 12.5705 20.5929C13.7634 21.249 13.8379 22.3226 12.302 21.7112C10.7662 21.0999 7.93298 18.9675 6.88917 18.9228C5.84537 18.878 5.15944 19.728 8.21629 21.8156C11.2582 23.9181 13.1967 24.8576 16.015 25.4689C18.8333 26.0654 19.3552 25.6777 19.042 24.7979C18.7289 23.9181 17.536 23.9181 16.686 23.3813C15.3142 22.5164 15.7913 21.9498 16.5518 22.2033C17.3272 22.4568 20.5481 23.8734 21.8156 23.933C24.112 24.0672 24.6339 22.9787 23.098 22.5761C21.9796 22.2928 19.9815 21.3533 18.714 20.563C17.4465 19.7727 17.2378 19.0122 18.0131 18.9824C18.7885 18.9526 19.9218 19.7131 20.6525 18.8631C21.3831 18.0132 19.8174 17.372 17.5807 16.3729Z" fill="#FFF5FA"/>
<path d="M9.633 7.90313C9.30495 7.61981 8.57428 6.6953 8.27605 6.90406C7.97782 7.11282 8.00764 7.51543 8.35061 7.8584C8.69357 8.20136 9.73738 9.21535 10.0654 8.93203C10.3935 8.6338 10.0207 8.23118 9.633 7.90313Z" fill="#FFF5FA"/>
<path d="M1.29737 14.6282C0.969316 14.6878 1.65524 16.2088 3.59374 17.5806C4.84631 18.4753 5.71117 18.9376 5.81555 18.6841C5.90502 18.4753 4.62263 17.5657 3.9367 16.9245C2.71396 15.7614 1.68507 14.5536 1.29737 14.6282Z" fill="#FFF5FA"/>
<path d="M6.78458 14.3746C6.03901 14.2106 6.39688 15.5079 7.39595 16.3579C8.39502 17.2078 9.05113 17.3271 8.91693 16.7754C8.78272 16.2386 7.85821 14.6281 6.78458 14.3746Z" fill="#FFF5FA"/>
<path d="M4.19018 7.96283C3.6981 8.36544 4.65244 9.70747 5.21907 10.2294C5.80062 10.7513 6.47164 10.6469 6.66549 10.2592C6.85934 9.8715 6.1585 9.26013 5.80062 8.91716C5.45766 8.5742 4.66735 7.56022 4.19018 7.96283Z" fill="#FFF5FA"/>
<path d="M20.1901 5.02519C18.1174 4.89099 17.1929 3.71298 16.4772 4.07085C15.7614 4.42873 17.0885 5.89005 19.5191 6.11373C21.9497 6.3374 23.1426 5.75585 23.1128 5.11466C23.083 4.47346 21.7409 5.12957 20.1901 5.02519Z" fill="#FFF5FA"/>
<path d="M15.6574 3.77256C15.9407 4.14535 15.3294 4.53305 14.6285 4.24973C13.9277 3.9515 11.8848 2.47526 12.019 1.7446C12.1681 1.02885 13.4058 1.89371 14.1215 2.49017C14.8522 3.07172 15.2846 3.26557 15.6574 3.77256Z" fill="#FFF5FA"/>
<path d="M23.9035 4.84623C23.7096 5.0699 23.8587 5.66636 24.9622 5.39795C25.7525 5.2041 27.6462 4.45853 27.5419 3.74278C27.4375 3.02702 26.5428 3.39981 25.7376 3.78751C24.9174 4.17521 24.2762 4.41379 23.9035 4.84623Z" fill="#FFF5FA"/>
<path d="M3.45964 19.9815C3.11667 19.9964 3.0272 20.6525 3.77278 21.3534C4.51835 22.0542 7.12787 23.441 7.63486 23.6945C8.97689 24.3953 10.0505 24.7979 10.1102 24.5743C10.1698 24.3506 8.94707 23.7989 7.47083 22.8594C5.18937 21.4279 4.20521 19.9368 3.45964 19.9815Z" fill="#FFF5FA"/>
<path d="M27.7354 19.8025C30.0766 19.1613 31.687 18.1473 32.2685 18.4157C32.8501 18.6692 32.6413 19.206 31.9554 19.8323C31.2695 20.4437 29.2713 21.3384 29.4354 21.7559C29.6739 22.3374 30.6581 22.0541 32.194 21.3831C33.7299 20.727 34.4456 19.877 35.0719 20.0858C35.7131 20.3095 35.3105 21.4577 34.4904 22.0839C33.6553 22.7251 31.0011 23.7391 28.6152 24.261C26.2294 24.768 25.0216 24.2908 25.3496 23.6944C25.6627 23.1128 27.4521 23.3067 27.646 22.8444C27.8398 22.3822 27.5416 22.0094 26.4978 22.0094C25.454 22.0094 23.2471 21.8155 23.8137 20.9656C24.3804 20.1305 25.4838 20.4139 27.7354 19.8025Z" fill="#FFF5FA"/>
<path d="M36.5184 15.1949C35.6387 15.9404 34.237 17.1035 33.8344 17.357C33.4318 17.6254 33.3721 17.9386 34.0431 17.8938C34.7141 17.8491 36.8465 16.2983 37.2789 15.4335C37.7114 14.5686 37.5473 14.33 36.5184 15.1949Z" fill="#FFF5FA"/>
<path d="M30.2109 16.7903C32.8651 15.7763 35.1615 13.8677 35.0422 12.9879C34.9378 12.1081 31.8661 14.494 30.7179 14.7624C29.5697 15.0159 29.018 14.2405 29.8679 13.8379C30.7179 13.4352 32.0897 12.6897 32.1196 12.2572C32.1494 11.8099 31.3442 11.6608 30.1661 12.2572C28.9881 12.8537 26.6918 13.6291 25.9909 13.7335C25.2901 13.8379 24.47 14.5089 24.5445 15.0308C24.6191 15.5527 25.648 15.5825 26.5427 15.4334C27.4224 15.2843 27.84 15.2097 28.0934 15.5825C28.3469 15.9553 26.1699 16.6114 24.7384 16.7307C23.2919 16.8351 22.3078 17.5359 23.7393 17.8341C25.1857 18.1175 27.8847 17.6701 30.2109 16.7903Z" fill="#FFF5FA"/>
<path d="M34.3118 9.97571C35.2513 9.25996 35.6091 8.72314 36.0416 8.88717C36.4889 9.0512 36.6529 9.52837 36.0416 10.1546C35.4302 10.7809 34.1329 11.8695 33.4768 11.5414C32.8207 11.2134 33.7154 10.4231 34.3118 9.97571Z" fill="#FFF5FA"/>
<path d="M37.7562 18.8481C37.4133 19.0867 37.0405 19.2805 37.0852 19.6086C37.1299 19.9367 37.6668 20.0112 38.1141 19.6682C38.5614 19.3402 38.7404 19.0867 38.6807 18.8034C38.636 18.5201 38.1737 18.5648 37.7562 18.8481Z" fill="#FFF5FA"/>
<path d="M23.0979 7.67952C23.0979 7.67952 25.7522 6.99359 27.1688 6.18837C28.5854 5.38315 29.0924 5.26386 29.1073 5.7112C29.1222 6.15855 27.974 6.76992 28.2275 6.79974C28.4661 6.82956 29.1073 6.42695 30.166 5.63664C31.2247 4.84633 31.5677 4.63757 31.9404 5.02527C32.3132 5.41297 31.3738 6.63571 29.7932 7.75408C28.2275 8.87244 27.1539 9.31978 27.0197 9.9908C26.8854 10.6618 27.6161 10.7066 28.5555 10.1697C29.495 9.64784 30.33 9.42416 30.5239 9.91624C30.7177 10.4083 29.1669 11.5565 26.7363 12.5407C24.3058 13.5397 23.083 13.9871 21.9945 14.1511C20.9208 14.3151 20.8612 13.2415 21.6366 12.988C22.412 12.7345 24.0672 11.9889 24.2461 11.5416C24.4101 11.0943 23.6646 11.0644 22.7251 11.3179C21.7857 11.5714 21.398 10.6469 22.248 10.1548C23.1128 9.66275 24.9917 9.05138 25.1855 8.63386C25.3794 8.21633 23.59 9.17067 22.7997 9.18558C21.8454 9.23032 21.6962 8.09704 23.0979 7.67952Z" fill="#FFF5FA"/>
<path d="M17.3566 33.7148C17.9084 33.7148 18.3855 33.3122 18.4452 32.7903C18.5346 31.9702 18.4452 30.8071 17.4312 30.1212C15.7313 28.9879 14.255 30.0913 14.255 30.0913C14.255 30.0913 14.6129 28.7642 13.763 27.8844C12.913 27.0047 11.6753 27.5713 11.6753 27.5713C11.6753 27.5713 10.9298 25.9609 9.25968 26.5275C7.58959 27.0941 8.21588 28.7344 8.21588 28.7344C8.21588 28.7344 7.00805 27.5713 5.47216 28.2871C3.93628 29.0177 4.75641 30.6878 4.75641 30.6878C4.75641 30.6878 3.30999 29.4352 2.01269 31.0606C1.34167 31.9106 1.6399 32.7307 1.96796 33.2228C2.16181 33.521 2.51968 33.7148 2.89247 33.7148H17.3566V33.7148Z" fill="url(#paint1_linear_819_5163)"/>
<path d="M16.6259 33.7149C16.6259 33.7149 17.789 33.0588 16.9689 31.6869C16.1935 30.3747 13.6586 31.6422 13.6586 31.6422C13.6586 31.6422 14.3296 29.8677 13.1814 29.4204C12.2867 29.0625 11.5709 29.7186 11.5709 29.7186C11.5709 29.7186 11.2876 28.2871 10.3184 28.302C8.57374 28.3169 9.14037 30.3449 9.14037 30.3449C9.14037 30.3449 8.09657 29.2862 6.7098 29.8975C5.32303 30.5238 5.88966 31.9255 5.88966 31.9255C5.88966 31.9255 4.27922 31.0308 3.66785 32.0597C3.04157 33.0886 3.66785 33.7149 4.32396 33.7149C4.98006 33.7149 16.6259 33.7149 16.6259 33.7149Z" fill="url(#paint2_linear_819_5163)"/>
<path d="M25.6033 33.8193C25.0665 33.8193 24.5595 33.5062 24.3209 33.029C24.0823 32.5369 23.963 31.8808 24.4998 31.2695C25.5436 30.0765 26.9453 30.9563 26.9453 30.9563C26.9453 30.9563 26.0059 29.495 27.1541 28.6152C28.3022 27.7354 29.3759 28.5406 29.3759 28.5406C29.3759 28.5406 29.3908 25.6478 32.0152 26.0355C34.6396 26.4232 34.1177 28.7643 34.1177 28.7643C34.1177 28.7643 35.3405 27.8547 36.429 28.8389C37.5176 29.823 36.5632 30.9414 36.5632 30.9414C36.5632 30.9414 37.8605 30.3449 38.4421 31.6721C38.4421 31.687 38.457 31.7019 38.457 31.7168C38.8894 32.7308 38.1289 33.8491 37.0404 33.8491H25.6033V33.8193Z" fill="url(#paint3_linear_819_5163)"/>
<path d="M35.2359 33.7895C35.728 33.7895 36.22 33.6254 36.5928 33.3123C36.8612 33.0737 37.07 32.7606 37.0104 32.358C36.8762 31.4036 35.7131 31.9106 35.7131 31.9106C35.7131 31.9106 36.4437 30.7923 35.4148 29.9125C34.3859 29.0327 33.029 30.0467 33.029 30.0467C33.029 30.0467 33.7447 27.974 31.9106 27.6012C30.5089 27.3179 29.9572 29.5397 29.9572 29.5397C29.9572 29.5397 29.152 28.5406 27.8994 29.2713C26.6469 30.0019 28.2722 31.7168 28.2722 31.7168C28.2722 31.7168 26.7662 31.0756 25.782 31.851C24.7829 32.6413 25.4539 33.7596 26.5574 33.7596C27.467 33.7746 33.4614 33.7895 35.2359 33.7895Z" fill="url(#paint4_linear_819_5163)"/>
<path d="M11.6755 1.56567L9.42383 26.6617H30.7622L28.1229 1.62532L11.6755 1.56567Z" fill="#F0C82C"/>
<path d="M29.0028 26.6617H11.1836L12.8686 4.23483L13.0624 1.56567L26.7959 1.62532L26.9301 3.027L29.0028 26.6617Z" fill="url(#paint5_linear_819_5163)"/>
<path d="M26.9302 3.027C26.7513 3.04191 26.5723 3.05682 26.3636 3.05682C22.7102 3.23576 16.1194 3.89187 12.8687 4.23483L13.0625 1.56567L26.796 1.61041L26.9302 3.027Z" fill="url(#paint6_linear_819_5163)"/>
<path d="M11.9141 27.7056C11.9141 27.7056 13.6886 32.8799 13.7631 33.1185C13.8973 33.4764 13.6438 34.0132 13.1667 33.9983C12.6895 33.9834 12.4509 33.6106 12.3465 33.372C11.7799 32.1045 10.3335 27.9293 10.3335 27.9293L11.9141 27.7056Z" fill="url(#paint7_linear_819_5163)"/>
<path d="M27.3032 27.4968C27.3032 27.4968 25.5288 32.6711 25.4542 32.9096C25.32 33.2675 25.5735 33.8043 26.0507 33.7894C26.5129 33.7745 26.7664 33.4017 26.8708 33.1631C27.4374 31.8957 28.8838 27.7204 28.8838 27.7204L27.3032 27.4968Z" fill="url(#paint8_linear_819_5163)"/>
<path d="M11.7649 27.795C11.7649 27.795 11.6158 28.4212 11.407 29.2414C11.0343 30.7027 10.4974 32.8052 10.3036 33.357C10.0054 34.2218 9.6624 34.5499 8.69315 34.5051C7.79846 34.4604 7.99231 33.5508 8.08178 33.2078C8.32036 32.2833 8.85718 30.1361 9.20014 28.7791C9.37908 28.0783 9.49837 27.5713 9.49837 27.5713L11.7649 27.795Z" fill="url(#paint9_linear_819_5163)"/>
<path d="M11.7652 27.795C11.7652 27.795 11.6161 28.4212 11.4073 29.2414C11.3328 29.2116 11.2582 29.1668 11.1836 29.137C10.4828 28.794 9.75215 28.7493 9.21533 28.7791C9.39427 28.0783 9.51356 27.5713 9.51356 27.5713L11.7652 27.795Z" fill="#FBD337"/>
<path d="M32.1487 33.864C31.2093 34.0578 30.8067 33.7894 30.3743 32.9842C30.1208 32.4921 29.3305 30.6878 28.7489 29.3309C28.3612 28.4213 28.063 27.7204 28.063 27.7204L30.255 27.1538C30.255 27.1538 30.5532 27.8696 30.9409 28.7792C31.4777 30.0466 32.1935 31.7167 32.5364 32.4921C32.6856 32.8053 33.0136 33.685 32.1487 33.864Z" fill="url(#paint10_linear_819_5163)"/>
<path d="M30.956 28.7792C30.4491 28.7643 29.7929 28.8389 29.1667 29.1371C29.0325 29.1967 28.8833 29.2713 28.7641 29.3309C28.3764 28.4213 28.0781 27.7205 28.0781 27.7205L30.2701 27.1539C30.2552 27.1389 30.5534 27.8547 30.956 28.7792Z" fill="#FBD337"/>
<path d="M31.4631 27.3626C31.2543 27.7652 30.7772 28.1082 29.7483 28.1678C28.0484 28.2722 10.6019 28.1529 9.5581 28.1231C8.93182 28.1082 8.54412 27.8248 8.33536 27.467C8.03713 26.96 8.09678 26.3039 8.32045 25.9758C8.70815 25.4092 9.49846 25.5136 10.1993 25.5136C10.1993 25.5136 29.6439 25.4092 30.3895 25.4092C31.135 25.4092 31.5526 25.8416 31.5973 26.5275C31.6271 26.7959 31.5973 27.0942 31.4631 27.3626Z" fill="url(#paint11_linear_819_5163)"/>
<path d="M31.4632 27.3626C31.2544 27.7652 30.7773 28.1082 29.7484 28.1678C28.0485 28.2722 10.602 28.1529 9.55819 28.1231C8.93191 28.1082 8.54421 27.8249 8.33545 27.467C12.0633 27.4521 26.2143 27.3775 31.4632 27.3626Z" fill="#FBD337"/>
<path d="M9.7665 26.2293C10.1989 26.2144 12.4804 25.946 14.5084 25.9609C16.5214 25.9758 18.0573 26.1697 19.0116 26.1846C19.966 26.1995 20.0554 26.2442 19.7721 26.289C19.4888 26.3337 15.6715 26.1548 14.4636 26.1697C13.2558 26.1846 10.0796 26.3635 9.58756 26.3486C9.08057 26.3337 9.34898 26.2442 9.7665 26.2293Z" fill="#F0C82C"/>
<path d="M14.6575 26.8557C14.419 26.8706 14.3444 26.9899 15.0154 26.9899C15.6864 26.9899 18.7433 27.2434 19.6529 27.139C20.5625 27.0346 22.6948 26.8259 24.1562 26.9153C25.6622 27.0197 26.6017 26.9899 26.4376 26.9004C26.2885 26.8259 25.1105 26.6917 24.0965 26.6618C23.3211 26.632 21.7852 26.6469 20.3537 26.7811C18.9222 26.9153 17.2969 26.8706 16.5811 26.8557C15.8654 26.8408 15.0751 26.8259 14.6575 26.8557Z" fill="#F0C82C"/>
<path d="M21.9195 26.0057C21.5467 26.0355 21.1142 26.2442 22.2028 26.2144C23.1869 26.1846 24.7079 26.0802 27.1981 26.1846C29.6884 26.289 30.8216 26.3337 30.6427 26.2144C30.4637 26.0951 28.1226 25.9609 26.5569 25.9609C24.9912 25.946 22.5607 25.946 21.9195 26.0057Z" fill="#F0C82C"/>
<path d="M13.0469 26.9302C13.2408 26.9004 13.4644 26.7214 12.8978 26.7513C12.3908 26.7662 11.6005 26.8706 10.3032 26.7811C9.0059 26.6916 8.42435 26.6469 8.51382 26.7662C8.60329 26.8855 9.82603 26.9898 10.6313 26.9898C11.4365 26.9898 12.7039 26.9898 13.0469 26.9302Z" fill="#F0C82C"/>
<path d="M27.1683 26.8407C26.9446 26.9004 26.9446 27.0197 27.5709 26.96C28.1972 26.9153 28.898 26.9004 29.7927 26.9898C30.6725 27.0793 31.1496 26.8407 30.9856 26.8258C30.8216 26.8109 30.1655 26.796 29.3603 26.7364C28.5699 26.6916 27.72 26.7065 27.1683 26.8407Z" fill="#F0C82C"/>
<path d="M28.5109 1.53589C28.3618 1.84903 28.004 2.11743 27.2286 2.16217C25.9611 2.23673 12.9582 2.14726 12.1978 2.11744C11.7355 2.10252 11.4373 1.87885 11.2882 1.61044C11.0645 1.22274 11.1092 0.715752 11.2882 0.447345C11.5864 0 12.1679 0.0894699 12.6898 0.0894699C12.6898 0.0894699 27.1689 0 27.7206 0C28.2724 0 28.5855 0.328054 28.6153 0.864868C28.6302 1.10345 28.6153 1.32712 28.5109 1.53589Z" fill="url(#paint12_linear_819_5163)"/>
<path d="M28.5109 1.53583C28.3618 1.84897 28.0039 2.11738 27.2285 2.16211C25.961 2.23667 12.9582 2.1472 12.1977 2.11738C11.7354 2.10247 11.4372 1.87879 11.2881 1.61039C14.0616 1.61039 24.6041 1.55074 28.5109 1.53583Z" fill="#FBD337"/>
<path d="M12.3462 0.656118C12.6742 0.641207 14.3741 0.432445 15.8802 0.447356C17.3862 0.462268 18.5195 0.611384 19.2353 0.626296C19.951 0.641207 20.0107 0.67103 19.8019 0.700853C19.5931 0.730676 16.7451 0.596472 15.8504 0.611383C14.9408 0.626295 12.5847 0.760498 12.212 0.745586C11.8392 0.745586 12.033 0.67103 12.3462 0.656118Z" fill="#F0C82C"/>
<path d="M15.9998 1.14814C15.8209 1.16305 15.7612 1.25252 16.2682 1.25252C16.7752 1.25252 19.0567 1.44637 19.7277 1.37181C20.3987 1.28234 21.9942 1.11831 23.0828 1.19287C24.2011 1.26743 24.902 1.25252 24.7827 1.17796C24.6634 1.11831 23.7985 1.01393 23.038 0.984109C22.4565 0.969197 21.3083 0.969198 20.2496 1.07358C19.1909 1.17796 17.9681 1.13322 17.4462 1.13322C16.8945 1.13322 16.298 1.13322 15.9998 1.14814Z" fill="#F0C82C"/>
<path d="M21.3976 0.492062C21.1292 0.521885 20.8011 0.671001 21.6064 0.656089C22.337 0.641178 23.4703 0.551709 25.3193 0.626266C27.1683 0.700824 28.0183 0.745557 27.8841 0.641177C27.7499 0.551708 26.0052 0.447327 24.8421 0.447327C23.694 0.447327 21.8748 0.447327 21.3976 0.492062Z" fill="#F0C82C"/>
<path d="M14.7917 1.20775C14.9408 1.17793 15.1048 1.04372 14.6873 1.05864C14.2996 1.07355 13.7181 1.1481 12.7488 1.08846C11.7796 1.0139 11.3471 0.984078 11.4068 1.07355C11.4664 1.16302 12.376 1.25249 12.9874 1.25249C13.5988 1.25249 14.5382 1.25248 14.7917 1.20775Z" fill="#F0C82C"/>
<path d="M25.3047 1.13331C25.1407 1.17804 25.1407 1.26751 25.6029 1.22278C26.0652 1.17804 26.602 1.17804 27.2581 1.23769C27.9142 1.29733 28.2721 1.1184 28.1528 1.1184C28.0335 1.1184 27.5414 1.10349 26.945 1.05875C26.3485 1.01402 25.7073 1.02893 25.3047 1.13331Z" fill="#F0C82C"/>
<path d="M25.1106 19.9218L25.0957 19.9367C24.9913 20.0112 24.8422 19.9814 24.7676 19.877L23.873 18.6543C23.7984 18.5499 23.8282 18.4008 23.9326 18.3262L23.9475 18.3113C24.0519 18.2368 24.201 18.2666 24.2756 18.371L25.1703 19.5937C25.2448 19.6981 25.215 19.8472 25.1106 19.9218Z" fill="url(#paint13_linear_819_5163)"/>
<path d="M27.9886 17.5209L27.9737 17.5359C27.8991 17.6402 27.75 17.6701 27.6456 17.6104L26.3633 16.7754C26.2589 16.7008 26.2291 16.5517 26.2887 16.4473L26.3036 16.4324C26.3782 16.328 26.5273 16.2982 26.6317 16.3579L27.9141 17.1929C28.0184 17.2675 28.0483 17.4166 27.9886 17.5209Z" fill="url(#paint14_linear_819_5163)"/>
<path d="M28.2726 12.5257L28.2876 12.5853C28.3025 12.7046 28.213 12.8239 28.0937 12.8388L26.7964 13.0178C26.6771 13.0327 26.5578 12.9432 26.5429 12.8239L26.528 12.7643C26.5131 12.645 26.6026 12.5257 26.7218 12.5108L28.0191 12.3318C28.1533 12.3169 28.2577 12.4064 28.2726 12.5257Z" fill="url(#paint15_linear_819_5163)"/>
<path d="M20.8911 21.1594C20.742 21.1743 20.6376 21.0699 20.6227 20.9357L20.5332 19.3104C20.5332 19.1762 20.6227 19.0569 20.7569 19.0569H20.7718C20.906 19.0569 21.0253 19.1464 21.0253 19.2806L21.1148 20.9059C21.1148 21.0401 21.0104 21.1445 20.8911 21.1594Z" fill="url(#paint16_linear_819_5163)"/>
<path d="M16.3132 20.3244L16.2834 20.3095C16.1641 20.2498 16.1342 20.1007 16.1939 19.9963L16.9096 18.6841C16.9693 18.5648 17.1184 18.535 17.2228 18.5946L17.2526 18.6096C17.3719 18.6692 17.4017 18.8183 17.3421 18.9227L16.6263 20.2349C16.5816 20.3393 16.4325 20.384 16.3132 20.3244Z" fill="url(#paint17_linear_819_5163)"/>
<path d="M12.6894 16.3579L12.6745 16.328C12.6298 16.2087 12.6894 16.0745 12.8087 16.0298L14.2253 15.5079C14.3446 15.4632 14.4788 15.5228 14.5235 15.6421L14.5385 15.6719C14.5832 15.7912 14.5235 15.9254 14.4043 15.9702L12.9877 16.4921C12.8684 16.5368 12.7342 16.4771 12.6894 16.3579Z" fill="url(#paint18_linear_819_5163)"/>
<path d="M12.1974 11.7801V11.7502C12.2123 11.616 12.3316 11.5266 12.4509 11.5415L13.9421 11.6906C14.0763 11.7055 14.1657 11.8248 14.1508 11.9441V11.9739C14.1359 12.1081 14.0166 12.1976 13.8973 12.1827L12.4062 12.0336C12.272 12.0186 12.1825 11.8994 12.1974 11.7801Z" fill="url(#paint19_linear_819_5163)"/>
<path d="M14.1359 7.45568L14.1508 7.44077C14.2403 7.3513 14.3894 7.3513 14.4789 7.45568L15.5078 8.54422C15.5972 8.63369 15.5972 8.78281 15.4929 8.87228L15.478 8.88719C15.3885 8.97666 15.2394 8.97666 15.1499 8.87228L14.121 7.78374C14.0315 7.69427 14.0315 7.54515 14.1359 7.45568Z" fill="url(#paint20_linear_819_5163)"/>
<path d="M18.2067 5.30845L18.2366 5.29354C18.3559 5.26371 18.4901 5.32336 18.5199 5.45756L18.9523 6.90398C18.9821 7.02327 18.9225 7.15748 18.7883 7.1873L18.7585 7.20221C18.6392 7.23203 18.505 7.17239 18.4751 7.03818L18.0427 5.59177C18.0129 5.48739 18.0874 5.35318 18.2067 5.30845Z" fill="url(#paint21_linear_819_5163)"/>
<path d="M23.6498 5.59172L23.6796 5.60663C23.7989 5.66628 23.8287 5.81539 23.7691 5.91977L23.0384 7.23198C22.9788 7.35127 22.8297 7.3811 22.7253 7.32145L22.6955 7.30654C22.5762 7.24689 22.5463 7.09778 22.606 6.9934L23.3367 5.68119C23.3963 5.57681 23.5454 5.53207 23.6498 5.59172Z" fill="url(#paint22_linear_819_5163)"/>
<path d="M27.512 8.94688L27.5269 8.9767C27.5865 9.08108 27.5567 9.2302 27.4374 9.28984L26.1401 10.0503C26.0357 10.11 25.8866 10.0802 25.827 9.96086L25.812 9.93104C25.7524 9.82666 25.7822 9.67754 25.9015 9.6179L27.1988 8.85741C27.3032 8.81268 27.4374 8.8425 27.512 8.94688Z" fill="url(#paint23_linear_819_5163)"/>
<path d="M39.5305 23.3067L35.3105 20.6375L26.1101 14.8221C26.1101 14.8221 25.9759 14.5984 26.0803 14.4642C26.1996 14.33 26.3338 14.3151 26.3338 14.3151L35.6833 20.0113L39.948 22.6059C40.1567 23.1129 39.5305 23.3067 39.5305 23.3067Z" fill="url(#paint24_linear_819_5163)"/>
<path d="M39.5305 23.3067L35.3105 20.6375C35.3255 20.6226 35.3255 20.6077 35.3404 20.6077C35.4895 20.3989 35.6237 20.1902 35.6982 19.9963L39.9629 22.5909C40.1568 23.1128 39.5305 23.3067 39.5305 23.3067Z" fill="url(#paint25_linear_819_5163)"/>
<path d="M14.7923 11.9888C14.7923 11.9888 15.0011 13.8378 15.0011 15.7912C15.0011 17.4762 14.7476 18.0876 14.7476 18.0876C14.7476 18.0876 14.8967 18.2964 14.9563 18.2516C15.016 18.192 15.2396 17.1929 15.1949 15.4632C15.1651 13.7484 14.9563 11.9292 14.9563 11.9292C14.9563 11.9292 14.8669 11.8695 14.7923 11.9888Z" fill="url(#paint26_linear_819_5163)"/>
<path d="M13.853 18.8035C13.853 18.8035 14.2258 18.0877 14.5837 17.9983C14.9565 17.9088 15.031 18.2667 15.0012 18.5798C14.9714 18.878 14.6583 19.385 14.6583 19.385C14.6583 19.385 13.9723 19.1912 13.853 18.8035Z" fill="url(#paint27_linear_819_5163)"/>
<path d="M16.7159 10.9451C16.4027 11.124 14.9265 12.7941 15.4782 13.0476C16.03 13.3011 16.6413 13.6888 16.194 14.8071C15.7466 15.9106 15.6721 17.6403 18.8631 17.9087C22.0393 18.192 24.4848 16.7755 25.0961 15.2694C25.7075 13.7484 25.3198 12.8537 24.6339 12.0336C23.948 11.2135 23.948 10.5574 24.1567 10.0355C24.3655 9.51355 23.2024 9.11094 21.3683 9.49864C19.6684 9.87143 18.6096 9.85651 16.7159 10.9451Z" fill="url(#paint28_linear_819_5163)"/>
<path d="M25.1113 14.0914C25.1859 14.2107 25.1859 14.3598 25.1113 14.4791C24.8131 15.0457 23.7842 16.5816 21.3089 17.1333C18.8783 17.6701 17.2977 16.8351 16.7609 16.4921C16.6416 16.4026 16.5671 16.2684 16.582 16.1193L16.6416 15.4632L16.9995 11.8397L22.8597 10.1547L23.65 11.5564L25.1113 14.0914Z" fill="url(#paint29_linear_819_5163)"/>
<path d="M23.6649 11.5564C23.0088 12.7643 22.5466 13.4204 21.1151 14.3001C19.4002 15.3738 17.9687 15.6571 16.6416 15.4483L16.9995 11.8248L22.8597 10.1398L23.6649 11.5564Z" fill="url(#paint30_linear_819_5163)"/>
<path d="M14.7481 11.7801C14.599 11.8546 14.6288 12.0783 14.7928 12.123C15.3445 12.2423 16.2989 12.466 17.3576 12.7941C18.0584 13.0028 18.7593 13.2414 19.3259 13.4353C20.146 13.7186 21.0556 13.4203 21.5477 12.7046C21.9652 12.0932 22.4573 11.4073 22.7854 11.0196C23.2327 10.4828 23.9783 9.82667 24.4555 9.43897C24.5897 9.33459 24.5151 9.11092 24.3362 9.11092C23.5459 9.14074 22.1293 9.17056 21.3837 9.14074C20.7276 9.11092 19.9075 9.02145 19.3706 8.94689C19.0277 8.90215 18.6847 9.02145 18.4312 9.26003C18.0435 9.61791 17.4172 10.1845 16.6418 10.6766C15.8814 11.1687 15.1954 11.5564 14.7481 11.7801Z" fill="url(#paint31_linear_819_5163)"/>
<path d="M15.0911 11.9441C14.927 12.0037 15.6577 12.1379 16.5077 12.3467C17.3576 12.5554 18.7593 13.0773 19.2812 13.2712C19.8031 13.465 20.5039 13.4651 20.9215 13.1668C21.339 12.8686 21.7416 12.1677 22.1889 11.5862C22.7854 10.8257 23.9634 9.66262 23.8441 9.63279C23.7248 9.60297 22.5319 10.602 21.6969 11.7502C21.2793 12.3467 20.9215 12.8388 20.3399 12.973C19.7584 13.1072 19.3856 12.9581 18.7444 12.7344C18.1032 12.5107 16.8506 12.1528 16.3884 12.0335C15.9261 11.9143 15.2849 11.8695 15.0911 11.9441Z" fill="url(#paint32_linear_819_5163)"/>

</svg>
