<svg width="50" height="30" viewBox="0 0 50 30" fill="none" xmlns="http://www.w3.org/2000/svg">
<defs>
<linearGradient id="paint0_linear_819_5429" x1="20.7914" y1="21.5024" x2="37.589" y2="51.4652" gradientUnits="userSpaceOnUse">
<stop stop-color="#DDDCFE"/>
<stop offset="1" stop-color="#B1AFE9"/>
</linearGradient>
<linearGradient id="paint1_linear_819_5429" x1="20.7478" y1="19.3587" x2="20.7478" y2="32.9809" gradientUnits="userSpaceOnUse">
<stop stop-color="#0D1748"/>
<stop offset="1" stop-color="#1B237E"/>
</linearGradient>
<linearGradient id="paint2_linear_819_5429" x1="9.80812" y1="30.5006" x2="4.39732" y2="22.7544" gradientUnits="userSpaceOnUse">
<stop stop-color="#DDDCFE"/>
<stop offset="1" stop-color="#F7F9FF"/>
</linearGradient>
<linearGradient id="paint3_linear_819_5429" x1="6.86477" y1="24.8033" x2="12.9418" y2="35.6432" gradientUnits="userSpaceOnUse">
<stop stop-color="#DDDCFE"/>
<stop offset="1" stop-color="#B1AFE9"/>
</linearGradient>
</defs>
<path d="M24.4814 29.3C34.7127 29.3 43.0068 28.963 43.0068 28.5474C43.0068 28.1317 34.7127 27.7947 24.4814 27.7947C14.2501 27.7947 5.95605 28.1317 5.95605 28.5474C5.95605 28.963 14.2501 29.3 24.4814 29.3Z" fill="url(#paint0_linear_819_5429)"/>
<path d="M34.8342 24.262C38.8092 23.2329 42.0575 20.8214 43.956 18.287C45.8397 15.7526 45.9287 14.232 45.1574 13.9248C44.3861 13.6176 43.4369 15.6605 41.8498 17.1043C40.248 18.5481 39.8771 18.4252 39.9661 17.7187C40.0551 17.0121 40.5891 16.7817 41.2269 15.8909C41.8647 15 41.1082 14.0016 40.3369 14.5392C39.5657 15.0921 38.8241 16.367 37.0442 17.3961C35.2792 18.4252 32.9357 19.2547 28.842 19.9919C24.7483 20.7292 23.8288 19.3007 23.5321 20.4067C23.2355 21.5126 24.7632 22.0809 26.3057 22.0502C27.8483 22.0194 28.1597 21.9273 28.1894 22.4342C28.2191 22.941 26.4837 23.1561 24.2589 23.1561C22.0341 23.1561 21.8116 23.5401 21.9006 24.3081C21.9747 25.0761 26.2761 26.4738 34.8342 24.262Z" fill="#FFF5FA"/>
<path d="M48.1827 9.88516C47.6043 9.53188 46.7885 10.8835 46.3584 11.7744C45.9283 12.6807 45.7799 13.3104 46.1062 13.5408C46.4177 13.7712 47.0258 13.6022 47.8564 12.3888C48.6722 11.16 48.8205 10.2692 48.1827 9.88516Z" fill="#FFF5FA"/>
<path d="M42.5618 11.4365C42.0426 12.2813 41.3604 13.2336 41.657 13.5715C41.9536 13.9094 42.8436 13.6176 43.6742 12.2966C44.5048 10.9603 44.8904 9.83905 44.4009 9.42433C43.9115 9.00961 43.3034 10.223 42.5618 11.4365Z" fill="#FFF5FA"/>
<path d="M26.4389 14.447C28.0111 14.4778 29.5388 14.447 33.0986 13.1107C36.1985 11.9434 36.7769 11.1293 37.6075 11.1754C38.4381 11.2215 39.0907 12.4349 38.542 13.4179C37.9932 14.401 35.442 15.5222 32.3718 16.3977C29.3015 17.2732 27.0619 17.688 25.6676 17.135C24.3921 16.6281 23.9768 14.401 26.4389 14.447Z" fill="#FFF5FA"/>
<path d="M27.9664 10.6838C29.598 10.177 30.6807 9.08641 31.452 8.14946C32.2233 7.19714 32.6831 7.35075 32.9204 7.81154C33.1577 8.27234 33.4247 9.624 31.9118 11.0371C30.8439 12.0355 30.4582 11.928 30.8142 12.4041C31.1702 12.8957 32.5051 12.4041 33.6471 10.9296C34.7892 9.45504 35.5753 7.04355 36.0055 6.38307C36.4356 5.7226 37.5925 5.89156 37.6815 7.35075C37.7705 8.80993 36.7619 11.5901 34.9375 13.1875C33.1132 14.7849 30.4582 15.7987 28.4262 16.0444C26.4091 16.2902 26.1124 15.9523 25.7861 15.2457C25.4746 14.5392 26.3794 14.0476 27.0617 13.9862C27.7439 13.9248 27.7884 13.5715 27.6253 13.2643C27.4621 12.9571 25.9493 13.5254 24.7182 13.4025C23.4871 13.2643 22.7158 13.1414 22.7307 12.0969C22.7455 11.0525 23.413 10.8835 24.8962 10.9757C26.3794 11.0371 26.676 11.0832 27.9664 10.6838Z" fill="#FFF5FA"/>
<path d="M16.6792 10.3152C18.2811 10.8835 19.2007 10.7299 20.2983 10.4073C21.3959 10.0848 21.7222 10.4995 21.6925 11.0371C21.6628 11.5747 21.2475 12.8649 19.2897 13.1107C17.9251 13.295 17.6433 12.9571 17.7027 13.5868C17.762 14.2012 19.1117 14.6159 20.7729 14.0783C22.4341 13.5408 24.2585 12.0201 24.9407 11.7283C25.623 11.4365 26.4981 12.2966 25.8603 13.5561C25.2226 14.8156 23.0422 16.5206 20.7432 16.7356C18.4443 16.9506 15.7448 16.1673 13.9353 15.1382C12.1258 14.1091 11.6956 13.1875 12.0071 12.4809C12.3334 11.759 13.1937 12.2198 13.8018 12.5884C14.4099 12.9571 14.6176 12.6806 14.6324 12.3273C14.6472 11.974 13.1047 11.5286 12.1406 10.6531C11.1765 9.77759 10.5684 8.88672 11.0875 8.04192C11.6066 7.18177 12.1999 7.90369 13.4607 8.73312C14.7511 9.57791 15.4037 9.85439 16.6792 10.3152Z" fill="#FFF5FA"/>
<path d="M38.7941 2.37417C38.4382 2.26665 37.9932 2.77353 37.919 3.2804C37.8449 3.78728 37.9784 4.18664 38.364 4.32487C38.7496 4.46311 39.0611 4.18664 39.2688 3.5876C39.4764 3.00393 39.3578 2.55849 38.7941 2.37417Z" fill="#FFF5FA"/>
<path d="M27.4917 6.19879C26.3941 6.61351 25.7119 6.50599 25.5487 7.07431C25.3856 7.64262 25.6229 8.48741 27.2099 8.0727C28.7969 7.65798 30.4285 6.93607 30.117 5.79944C29.8055 4.67817 28.8563 5.67656 27.4917 6.19879Z" fill="#FFF5FA"/>
<path d="M21.1587 6.56742C20.9214 6.85926 20.9807 7.55046 22.3749 7.88837C23.7691 8.22629 24.2883 7.98053 24.3328 7.47366C24.3624 6.95142 23.9026 6.67494 23.0127 6.4599C21.9448 6.18343 21.4998 6.15271 21.1587 6.56742Z" fill="#FFF5FA"/>
<path d="M16.1899 4.44774C15.4483 4.10982 14.3211 3.29575 13.7723 2.97319C13.2087 2.666 12.912 3.11143 12.9565 3.61831C13.001 4.12518 13.5795 4.7703 14.7809 5.49221C15.9823 6.21413 18.0439 6.93604 18.6817 6.96676C19.3195 6.99748 19.4678 6.70564 19.4382 6.15269C19.3788 5.61509 17.6435 5.12358 16.1899 4.44774Z" fill="#FFF5FA"/>
<path d="M10.1087 16.0752C7.26097 14.3241 6.96433 12.7421 6.22272 12.911C5.48111 13.08 5.7036 14.0784 6.62319 15.4147C7.54278 16.751 8.87768 17.7033 9.96043 18.4099C11.0432 19.1164 11.3695 19.2854 10.9542 19.9151C10.5537 20.5449 10.0346 20.5449 8.6552 19.5772C7.29064 18.6249 6.40071 17.8262 6.17823 18.8707C5.95574 19.9151 8.03225 21.8351 10.5537 23.2943C13.0752 24.7535 15.4483 24.9685 15.9971 24.8303C16.5459 24.692 16.6646 23.709 15.7746 23.1561C14.8847 22.6185 13.5498 22.6492 12.9565 22.0655C12.3632 21.4818 12.4819 20.1455 13.7278 20.3145C14.9885 20.4834 18.0588 21.5279 18.5482 20.4834C19.0229 19.439 17.9401 18.5635 16.8129 18.3945C14.7809 18.118 12.9565 17.8262 10.1087 16.0752Z" fill="#FFF5FA"/>
<path d="M49.1914 28.9621C49.1766 28.9621 49.1469 28.9621 49.1321 28.9467C49.1173 28.9313 47.3671 27.4414 44.9346 24.1698C42.5021 20.9135 40.9151 18.287 40.8854 18.2562C40.8558 18.1948 40.8558 18.118 40.9003 18.0873C40.9447 18.0412 41.0041 18.0566 41.0337 18.118C41.0486 18.1487 42.6356 20.7599 45.0681 24.0162C47.4857 27.2571 49.2211 28.7317 49.2359 28.747C49.2804 28.7931 49.2953 28.8699 49.2656 28.916C49.2508 28.9313 49.2211 28.9621 49.1914 28.9621Z" fill="#0F0D5F"/>
<path d="M48.9984 28.6702L49.2209 26.9192C49.2505 26.7042 49.4137 26.5659 49.5768 26.612C49.7845 26.6735 49.9328 26.781 49.9625 26.8424C50.1553 27.211 49.5472 28.317 49.3544 28.7931C49.3247 28.8853 49.2357 28.9314 49.1467 28.916H49.117C49.0429 28.9006 48.9835 28.7931 48.9984 28.6702Z" fill="#D3A838"/>
<path d="M24.7184 28.5934H16.7832L18.5186 2.7428L24.7184 28.5934Z" fill="url(#paint1_linear_819_5429)"/>
<path d="M14.2024 28.5935C14.2024 28.5935 13.6239 28.5935 12.7043 28.5935H1.83235C0.868264 28.5935 -0.60012 28.4399 0.260145 26.3049C1.10558 24.2005 2.97443 25.0453 3.03376 25.0607C3.00409 25.0146 2.52946 23.9241 3.67154 23.0793C4.82845 22.2191 6.17818 23.279 6.17818 23.279C6.17818 23.279 5.80737 21.5433 7.55756 20.7599C9.32259 19.9919 11.6957 21.5279 12.6005 22.5417C14.8402 25.0761 14.2024 28.5935 14.2024 28.5935Z" fill="url(#paint2_linear_819_5429)"/>
<path d="M12.7043 28.5934H3.55284C3.40452 28.3477 3.28586 27.9483 3.55284 27.4261C3.9978 26.5506 4.9174 26.996 4.9174 26.996C4.9174 26.996 4.62076 25.7365 5.49585 25.1375C6.37095 24.5384 7.26088 25.3064 7.26088 25.3064C7.26088 25.3064 7.06806 23.325 9.69335 23.1714C12.2297 23.0485 13.3866 27.165 12.7043 28.5934Z" fill="url(#paint3_linear_819_5429)"/>
<path d="M1.09112 28.6395C1.06145 28.6395 1.03179 28.6242 1.00212 28.6088C0.957626 28.5627 0.957626 28.4859 1.00212 28.4398C1.01695 28.4245 2.94514 26.3355 5.31828 23.5093C7.69142 20.6985 9.15981 18.3638 9.17464 18.3484C9.2043 18.287 9.27846 18.2716 9.33779 18.3177C9.39712 18.3484 9.41195 18.4252 9.36746 18.4866C9.35263 18.5174 7.86941 20.8521 5.49627 23.6783C3.12312 26.5045 1.19494 28.5934 1.16528 28.6088C1.15044 28.6242 1.12078 28.6395 1.09112 28.6395Z" fill="#0F0D5F"/>
<path d="M1.26909 28.5013L1.03177 26.8578C0.987278 26.5967 0.749965 26.4277 0.497819 26.4891C0.275336 26.5352 0.17151 26.6581 0.141846 26.7349C0.0231883 27.1496 0.601643 28.148 0.824126 28.6395C0.868622 28.747 0.972448 28.7931 1.0911 28.7624C1.20976 28.747 1.28392 28.6242 1.26909 28.5013Z" fill="#D3A838"/>
<path d="M18.5182 3.00388C18.4886 3.00388 18.4441 3.00388 18.4144 2.97316C18.2957 2.91172 18.2364 2.77349 18.2957 2.65061L19.3785 0.346628C19.4378 0.223749 19.5713 0.162309 19.69 0.223749C19.8086 0.285188 19.8679 0.423426 19.8086 0.546305L18.7259 2.85028C18.6962 2.94244 18.6072 3.00388 18.5182 3.00388Z" fill="#0F0D5F"/>
<path d="M18.5036 3.03464C18.4146 3.03464 18.3256 2.98856 18.2811 2.8964L17.139 0.346661C17.0797 0.223782 17.139 0.0701825 17.2577 0.0241029C17.3763 -0.0373365 17.5246 0.0241034 17.5691 0.146982L18.7112 2.69672C18.7705 2.8196 18.7112 2.9732 18.5925 3.01928C18.5629 3.03464 18.5332 3.03464 18.5036 3.03464Z" fill="#0F0D5F"/>
<path d="M32.3122 5.04678C32.2825 5.04678 32.238 5.04678 32.2083 5.03142C32.0897 4.96999 32.0304 4.83175 32.0897 4.70887L33.0241 2.69672C33.0834 2.57385 33.2169 2.51241 33.3356 2.57385C33.4542 2.63529 33.5136 2.77352 33.4542 2.8964L32.5198 4.90855C32.4902 4.98534 32.4012 5.04678 32.3122 5.04678Z" fill="#0F0D5F"/>
<path d="M32.253 4.98531C32.164 4.98531 32.075 4.93923 32.0305 4.84707L31.0516 2.60453C30.9923 2.48166 31.0516 2.32806 31.1703 2.28198C31.2889 2.22054 31.4372 2.28198 31.4817 2.40486L32.4606 4.6474C32.52 4.77028 32.4607 4.92387 32.342 4.96995C32.3123 4.98531 32.2827 4.98531 32.253 4.98531Z" fill="#0F0D5F"/>
<path d="M18.519 2.7428V28.5934H11.8C11.8 28.5934 11.6221 27.0575 10.8063 23.9701C10.0943 21.3129 9.13025 18.4713 9.10059 18.3945C9.10059 18.3945 9.99051 17.2271 11.3106 15.2611C12.0225 14.2013 12.868 12.911 13.7579 11.4365C16.6057 6.721 18.519 2.7428 18.519 2.7428Z" fill="#FFDA49"/>
<path d="M18.5185 20.6677V28.5934H11.7995C11.7995 28.5934 11.6216 27.0574 10.8058 23.9701C10.0939 21.3128 9.12976 18.4713 9.1001 18.3945C9.17426 18.4252 11.4436 19.5925 14.0392 20.1148C16.4717 20.6063 18.1774 20.6677 18.5185 20.6677Z" fill="#FBCD1B"/>
<path d="M18.5185 2.7428V17.2579C15.1664 17.0736 12.7339 16.0598 11.3101 15.2764C12.022 14.2166 12.8674 12.9264 13.7574 11.4518C16.6051 6.721 18.5185 2.7428 18.5185 2.7428Z" fill="#FFE16C"/>
<path d="M30.3397 18.1641C30.31 18.2409 29.4349 20.4988 28.7527 23.6322C28.0704 26.8271 27.9072 28.6088 27.9072 28.6088H24.7035C24.7035 28.6088 23.5021 25.844 21.9744 20.6678C21.7074 19.7769 21.4256 18.7939 21.1438 17.7494C21.0993 17.5804 21.0548 17.4115 21.0103 17.2425C18.4295 7.55044 18.5036 2.7428 18.5036 2.7428C18.5036 2.7428 22.2265 8.76386 25.8159 13.0493C26.7206 14.1398 27.4474 15.0153 28.0555 15.6758C29.8799 17.6572 30.3397 18.1641 30.3397 18.1641Z" fill="#FFDA49"/>
<path d="M30.3398 18.1641C30.3101 18.2409 29.4647 20.4527 28.7972 23.6015C28.1149 26.7963 28.0704 28.6088 28.0704 28.6088H24.7184C24.7184 28.6088 23.517 25.844 21.9893 20.6677C22.6715 20.6063 23.7691 20.468 25.2968 20.1608C28.0111 19.5925 30.2656 18.1948 30.3398 18.1641Z" fill="#FBCD1B"/>
<path d="M28.0704 15.6912C26.6168 16.2595 24.0954 17.0582 21.0103 17.2425C18.4295 7.55044 18.5036 2.7428 18.5036 2.7428C18.5036 2.7428 22.2265 8.76386 25.8159 13.0493C26.7503 14.1398 27.4771 15 28.0704 15.6912Z" fill="#FFE16C"/>
<path d="M41.3749 18.3484C41.3452 18.4252 40.4108 21.6047 39.6395 24.2466C38.8534 26.9192 38.6755 28.6549 38.6755 28.6549L27.9221 28.5935C27.9221 28.5935 28.4858 24.9839 28.9604 22.4188C29.3312 20.4067 29.969 18.9321 30.2211 18.3945C30.2211 18.3792 30.236 18.3792 30.236 18.3638C30.2805 18.2716 30.3101 18.2102 30.325 18.1795C30.325 18.1641 30.3398 18.1641 30.3398 18.1641C30.3398 18.1641 29.3609 17.1196 28.0853 15.6912C26.6021 14.0323 24.7332 11.8973 23.5615 10.3306C21.396 7.42758 18.5186 2.75818 18.5186 2.75818C18.5186 2.75818 21.0994 4.30952 25.9643 5.1236C30.8292 5.93767 32.3866 4.87784 32.3866 4.87784C32.3866 4.87784 33.8253 8.61029 36.9994 12.7114C38.008 14.0016 38.8089 15.0461 39.4467 15.8755C40.8113 17.6112 41.3749 18.3484 41.3749 18.3484Z" fill="#F0CB3D"/>
<path d="M41.3751 18.3484C41.3603 18.4252 40.411 21.6047 39.6398 24.2466C38.8537 26.9192 38.6757 28.6548 38.6757 28.6548L27.9224 28.5934C27.9224 28.5934 28.486 24.9838 28.9606 22.4187C29.3314 20.4066 29.9692 18.9321 30.2213 18.3945C30.2213 18.3791 30.2362 18.3791 30.2362 18.3637C30.2807 18.2716 30.3103 18.2101 30.3252 18.1794C30.3252 18.1641 30.34 18.1641 30.34 18.1641C30.34 18.1641 33.4844 19.1625 36.8365 19.1625C40.1441 19.1471 41.3455 18.3637 41.3751 18.3484Z" fill="#EAC228"/>
<path d="M39.4469 15.8448C39.0316 16.2441 38.2752 16.7356 36.9699 16.9353C36.8661 16.9507 36.7623 16.966 36.6585 16.9814C36.2432 17.0275 35.7685 17.0582 35.2346 17.0275C34.2408 16.9968 33.2767 16.8892 32.4165 16.751C32.283 16.7356 32.1495 16.7049 32.016 16.6896C29.7467 16.2902 28.1448 15.7065 28.0706 15.6758C26.5874 14.0169 24.7186 11.8819 23.5468 10.3152C21.3813 7.4122 18.5039 2.7428 18.5039 2.7428C18.5039 2.7428 19.9723 3.61831 22.7607 4.40166C22.8646 4.43238 22.9832 4.4631 23.087 4.49382C23.9325 4.72422 24.8817 4.9239 25.9348 5.10822C26.4243 5.18502 26.8841 5.24645 27.3142 5.30789C27.418 5.32325 27.5219 5.32326 27.6108 5.33862C31.1557 5.67653 32.3571 4.86246 32.3571 4.86246C32.3571 4.86246 33.7959 8.59491 36.9699 12.696C38.0082 13.9862 38.8091 15.0307 39.4469 15.8448Z" fill="#EECE50"/>
<path d="M34.6566 18.9935L34.5972 19.0857C34.5824 19.1164 33.0843 21.6508 32.2092 23.7858C31.3193 25.9362 30.4887 28.532 30.4739 28.5627L30.2514 28.4859C30.2662 28.4552 31.0968 25.844 32.0016 23.6937C32.8025 21.7583 34.0781 19.5158 34.3599 19.0396C34.1374 18.8399 33.4255 18.1795 32.0461 16.6896C31.3342 15.9216 30.4294 14.9385 29.3318 13.6944C26.2171 10.1616 23.6066 5.78406 22.8057 4.40167C22.9095 4.43239 23.0281 4.46311 23.132 4.49383C24.0516 6.0759 26.5434 10.177 29.5098 13.5254C30.726 14.9078 31.6901 15.9676 32.4317 16.751C33.9743 18.3791 34.5824 18.9014 34.5824 18.9167L34.6566 18.9935Z" fill="#EAC02A"/>
<path d="M39.3135 19.0089L39.2393 19.1164C39.2245 19.1472 37.326 21.9734 36.2284 24.3081C35.1308 26.6274 34.5969 28.532 34.5969 28.5474L34.3595 28.486C34.3595 28.4706 34.8935 26.5353 36.0059 24.2006C36.9997 22.1116 38.6312 19.608 38.9723 19.0857C38.7202 18.886 37.9638 18.2716 36.6585 16.9968C35.8131 16.1827 34.7452 15.0768 33.4251 13.6483C30.3252 10.2692 28.0855 6.61351 27.3291 5.30792C27.4329 5.32328 27.5368 5.32328 27.6257 5.33864C28.4563 6.75175 30.6218 10.2538 33.5883 13.4794C34.9677 14.9846 36.0949 16.1213 36.9552 16.9507C38.468 18.4099 39.1948 18.9321 39.1948 18.9475L39.3135 19.0089Z" fill="#EAC02A"/>
<path d="M26.8396 22.8028L24.7186 28.6088C24.7186 28.6088 23.0722 24.7842 21.1589 17.7648C18.4446 7.7348 18.5188 2.77356 18.5188 2.77356C18.5188 2.77356 18.9192 6.38313 21.9153 12.5117C24.1401 17.0736 25.8013 19.7616 26.6171 21.0057C26.9731 21.5126 27.0621 22.1884 26.8396 22.8028Z" fill="#C9A92D"/>
<path d="M37.6372 26.0898C37.0884 27.8101 36.2282 28.5013 36.2282 28.5013H28.9308C28.9308 28.5013 27.581 26.4738 28.0408 24.2005C28.5006 21.9272 29.88 21.5125 30.4288 21.8197C30.9776 22.1423 31.8082 21.2821 31.7192 19.6386C31.6302 17.9951 31.1111 17.8722 31.6005 17.4268C32.09 16.9814 34.4186 18.1487 35.0564 20.4373C35.6942 22.7106 35.2048 23.5707 35.7832 23.6936C36.3617 23.8165 36.154 22.7106 36.7918 22.6799C37.4296 22.6338 38.2157 24.2927 37.6372 26.0898Z" fill="#FFDB51"/>
<path d="M36.5541 27.1342C36.2871 27.6718 35.9757 28.1326 35.679 28.4859H29.8203C29.3754 27.764 28.6634 26.3048 28.9007 24.6459C29.2419 22.2498 30.3839 23.2943 31.4964 22.2498C32.6088 21.2053 31.9117 18.9935 32.2528 18.6402C32.5939 18.287 34.181 19.0396 34.4925 21.1746C34.8188 23.3096 34.6704 24.477 35.5307 24.6459C36.391 24.8149 36.3168 23.5554 36.8211 23.7397C37.3106 23.9394 37.3699 25.4754 36.5541 27.1342Z" fill="#FF923F"/>
<path d="M35.2939 27.1803C35.2346 27.7793 35.0566 28.1941 34.8786 28.4859H31.0667C30.7998 27.8715 30.4141 26.827 30.4586 25.9054C30.5328 24.477 31.8232 23.8933 32.0308 23.2482C32.2385 22.6031 32.9949 22.726 33.2174 23.5554C33.4399 24.3848 33.0542 24.9531 33.514 25.1528C33.9738 25.3525 34.1518 24.7842 34.5523 24.8149C34.9528 24.861 35.4422 25.7979 35.2939 27.1803Z" fill="#FFD328"/>
<path d="M31.6599 28.5935H27.8332C27.4624 28.5935 27.1509 28.2863 27.1509 27.8869C27.1509 27.5029 27.4475 27.1804 27.8332 27.1804H31.6599C32.0307 27.1804 32.3421 27.4876 32.3421 27.8869C32.3421 28.2709 32.0307 28.5935 31.6599 28.5935Z" fill="#C68729"/>
<path d="M27.8478 28.6088C28.2246 28.6088 28.5301 28.2925 28.5301 27.9022C28.5301 27.512 28.2246 27.1957 27.8478 27.1957C27.471 27.1957 27.1655 27.512 27.1655 27.9022C27.1655 28.2925 27.471 28.6088 27.8478 28.6088Z" fill="#D3A838"/>
<path d="M30.221 27.9483H28.7081C28.6636 27.9483 28.6191 27.9022 28.6191 27.8561C28.6191 27.8101 28.6636 27.764 28.7081 27.764H30.221C30.2655 27.764 30.31 27.8101 30.31 27.8561C30.31 27.9022 30.2803 27.9483 30.221 27.9483Z" fill="#D3A838"/>
<path d="M32.0452 27.595H30.4137C30.3692 27.595 30.3247 27.5489 30.3247 27.5029C30.3247 27.4568 30.3692 27.4107 30.4137 27.4107H32.0452C32.0897 27.4107 32.1342 27.4568 32.1342 27.5029C32.1342 27.5489 32.1046 27.595 32.0452 27.595Z" fill="#D3A838"/>
<path d="M31.5266 28.2094H30.4142C30.3697 28.2094 30.3252 28.1633 30.3252 28.1172C30.3252 28.0712 30.3697 28.0251 30.4142 28.0251H31.5266C31.5711 28.0251 31.6156 28.0712 31.6156 28.1172C31.6156 28.1633 31.5859 28.2094 31.5266 28.2094Z" fill="#D3A838"/>
<path d="M36.8659 28.5935H33.0392C32.6684 28.5935 32.3569 28.2863 32.3569 27.8869C32.3569 27.5029 32.6536 27.1804 33.0392 27.1804H36.8659C37.2367 27.1804 37.5482 27.4876 37.5482 27.8869C37.5482 28.2709 37.2515 28.5935 36.8659 28.5935Z" fill="#C68729"/>
<path d="M33.0543 28.6088C33.4312 28.6088 33.7366 28.2925 33.7366 27.9022C33.7366 27.512 33.4312 27.1957 33.0543 27.1957C32.6775 27.1957 32.3721 27.512 32.3721 27.9022C32.3721 28.2925 32.6775 28.6088 33.0543 28.6088Z" fill="#D3A838"/>
<path d="M35.4422 27.9483H33.9293C33.8848 27.9483 33.8403 27.9022 33.8403 27.8561C33.8403 27.8101 33.8848 27.764 33.9293 27.764H35.4422C35.4867 27.764 35.5312 27.8101 35.5312 27.8561C35.5312 27.9022 35.4867 27.9483 35.4422 27.9483Z" fill="#D3A838"/>
<path d="M37.2518 27.595H35.6202C35.5757 27.595 35.5312 27.5489 35.5312 27.5029C35.5312 27.4568 35.5757 27.4107 35.6202 27.4107H37.2518C37.2963 27.4107 37.3408 27.4568 37.3408 27.5029C37.3408 27.5489 37.3111 27.595 37.2518 27.595Z" fill="#D3A838"/>
<path d="M36.7327 28.2095H35.6202C35.5757 28.2095 35.5312 28.1634 35.5312 28.1173C35.5312 28.0712 35.5757 28.0251 35.6202 28.0251H36.7327C36.7772 28.0251 36.8216 28.0712 36.8216 28.1173C36.8216 28.1634 36.792 28.2095 36.7327 28.2095Z" fill="#D3A838"/>
<path d="M30.1023 19.2701C30.4381 19.2701 30.7104 18.9675 30.7104 18.5942C30.7104 18.221 30.4381 17.9184 30.1023 17.9184C29.7664 17.9184 29.4941 18.221 29.4941 18.5942C29.4941 18.9675 29.7664 19.2701 30.1023 19.2701Z" fill="#FFE871"/>
<path d="M32.7428 16.7664C32.8984 16.7664 33.0246 16.6289 33.0246 16.4592C33.0246 16.2896 32.8984 16.152 32.7428 16.152C32.5871 16.152 32.4609 16.2896 32.4609 16.4592C32.4609 16.6289 32.5871 16.7664 32.7428 16.7664Z" fill="#FFE871"/>
<path d="M28.1447 20.0841C28.284 20.0841 28.3969 19.9534 28.3969 19.7923C28.3969 19.6311 28.284 19.5004 28.1447 19.5004C28.0055 19.5004 27.8926 19.6311 27.8926 19.7923C27.8926 19.9534 28.0055 20.0841 28.1447 20.0841Z" fill="#FFE871"/>
<path d="M15.7599 28.6088L14.8255 20.2837V20.253C14.8403 20.207 16.1307 15.4761 16.4719 13.8326C16.8872 11.8205 17.7771 6.58275 18.1924 4.18661C17.3322 6.45987 15.4336 11.4518 14.6624 13.295C13.9949 14.8771 11.9481 19.0396 11.7404 19.485L13.2385 28.532L13.0012 28.5781L11.4883 19.439L11.5031 19.4082C11.5328 19.3622 13.7428 14.8617 14.4399 13.2028C15.4485 10.7914 18.3704 3.03462 18.4001 2.95782L18.6374 3.01926C18.6225 3.09606 17.258 11.2675 16.724 13.894C16.3977 15.4915 15.1815 19.9305 15.0777 20.2991L16.0121 28.5781L15.7599 28.6088Z" fill="#EAC02A"/>

</svg>
