<svg width="721" height="803" viewBox="0 0 721 803" fill="none" xmlns="http://www.w3.org/2000/svg">
<path d="M359 5.5L3 91.5C13.5 210.5 36.7747 404.779 71.5 494C140 670 262 723.5 362 800.5C464.667 732.667 605.048 649.88 657 470.5C710 287.5 716 103 716 92L359 5.5Z" fill="#FBCD1B" stroke="black"/>
<path d="M340.433 3.33381C333.1 5.06714 317.767 8.66714 306.433 11.3338C245.233 25.6005 141.1 52.0005 44.1667 77.7338C20.4333 84.0005 0.833333 89.2005 0.3 89.2005C-0.1 89.2005 -0.1 93.8672 0.3 99.4672C0.7 105.201 1.76667 118.8 2.43333 129.867C4.03333 152.134 8.43333 197.2 10.4333 210.534C11.1 215.334 12.5667 226.401 13.7667 235.201C23.9 310.401 50.0333 438 64.3 481.467C94.7 573.734 161.233 659.201 261.767 735.067C288.433 755.201 332.3 785.334 356.033 799.734L360.967 802.667L386.033 786.401C510.167 706.001 586.433 629.867 631.633 541.334C653.633 498.134 662.967 468.4 680.567 386.267C695.9 314 706.567 250.4 713.633 187.867C718.033 149.467 722.3 89.2005 720.567 89.2005C720.033 89.2005 703.1 84.8005 682.7 79.3338C662.433 73.8671 637.367 67.2005 627.1 64.5338C616.833 61.8672 599.5 57.3338 588.433 54.4005C496.433 30.2671 368.167 -0.132835 359.5 0.000498101C356.3 0.000498101 347.767 1.60048 340.433 3.33381ZM383.767 11.0671C391.5 12.8005 410.967 17.4671 427.1 21.2004C482.967 34.2671 611.233 66.9338 686.433 87.2005C695.633 89.6005 705.633 92.4005 708.833 93.2005L714.567 94.6671L713.767 107.6C707.233 212.4 687.233 337.467 659.1 449.334C627.633 574.134 545.367 673.734 388.433 776.667C376.033 784.801 364.433 792.134 362.967 792.934C360.433 794.267 356.433 792.001 328.167 773.334C293.633 750.534 258.433 724.534 231.1 701.734C209.367 683.734 166.7 641.067 151.367 622.401C104.433 564.801 76.9667 510.267 60.4333 441.734C32.5667 326.534 12.1667 198.667 8.3 114.4C7.36667 95.8671 7.5 94.8005 9.9 94.0005C11.2333 93.6005 27.1 89.3338 45.1 84.5338C78.5667 75.6005 83.1 74.4005 130.433 62.0005C182.033 48.4005 277.1 24.9338 325.1 14.0005C333.5 12.1338 344.033 9.60049 348.433 8.53382C358.3 6.13382 365.767 6.66715 383.767 11.0671Z" fill="black"/>
<path d="M510.433 120.667C496.167 129.067 482.833 137.067 480.833 138.534C476.567 141.601 475.767 147.734 479.1 150.534C480.7 151.867 481.1 155.334 481.1 166.134C481.1 177.867 480.7 180.534 478.433 183.601C476.167 186.801 476.033 187.867 477.367 192.134C478.7 196.667 478.567 197.601 475.1 202.401C470.833 208.667 471.233 213.067 476.567 216.534C484.433 221.601 490.967 214.534 490.3 201.334C490.033 197.201 490.433 192.401 490.967 190.667C491.767 188.401 491.233 186.534 489.233 183.734C486.833 180.534 486.433 178.134 486.433 167.334C486.433 160.401 486.967 154.401 487.633 153.867C488.3 153.467 497.767 150.134 508.7 146.401C519.5 142.667 528.967 138.934 529.633 137.867C530.7 136.534 531.367 136.667 532.967 138.667C534.167 140.134 537.367 141.601 540.033 142.001C544.033 142.667 545.5 142.267 548.3 139.467L551.767 136.001V139.067C551.767 144.801 544.433 147.467 535.5 145.201C530.433 143.734 528.567 144.134 511.9 149.867C501.9 153.334 493.367 156.534 492.833 157.067C492.167 157.601 503.1 163.601 516.967 170.401C539.633 181.601 542.3 182.667 545.233 181.201C556.567 175.334 602.033 148.401 603.5 146.667C604.3 145.601 605.1 143.067 605.1 141.067C605.1 139.201 604.3 136.934 603.5 136.134C599.233 132.801 542.3 105.201 539.5 105.201C537.9 105.334 524.7 112.134 510.433 120.667Z" fill="black"/>
<path d="M559.767 179.867C551.367 184.934 543.633 189.2 542.567 189.2C541.5 189.2 533.1 185.334 523.633 180.534C514.3 175.734 506.167 171.867 505.5 171.867C504.967 171.867 504.7 175.2 504.833 179.2C505.367 186.934 502.833 194 452.3 328.4C445.367 346.667 439.767 362.4 439.767 363.334C439.767 365.867 490.7 366.134 492.7 363.467C493.5 362.667 495.767 356.934 497.9 350.8L501.767 339.867H541.1H580.567L584.567 352.134L588.567 364.534L615.5 364.934C635.367 365.2 642.433 364.8 642.433 363.734C642.433 362.8 627.767 322.934 609.767 274.934C579.367 194 577.1 187.2 577.1 179.2C577.1 174.4 576.7 170.534 576.167 170.534C575.5 170.667 568.167 174.8 559.767 179.867ZM544.567 239.6C545.633 240.4 564.167 292.4 565.367 298.4C565.767 299.867 561.5 300.134 541.1 300C527.5 299.734 516.3 299.467 516.167 299.334C515.9 299.2 520.433 285.734 526.033 269.467C532.833 249.867 536.967 239.734 538.3 239.467C541.767 238.534 542.967 238.534 544.567 239.6Z" fill="black"/>
<path d="M155.5 185.734C122.567 191.601 104.967 206.134 100.967 230.667C98.4333 246.667 103.633 264.134 113.767 272.934C124.7 282.667 138.3 287.067 175.767 293.334C204.3 298.001 211.9 300.801 215.1 307.334C216.967 311.201 216.967 312.267 215.233 316.401C212.833 322.134 209.233 324.534 199.1 327.067C184.567 330.934 164.567 329.334 154.033 323.467C148.833 320.534 143.767 314.001 143.767 310.001C143.767 308.134 141.1 307.867 119.767 307.867H95.7666V312.401C95.7666 326.401 101.633 341.334 110.7 350.534C122.833 362.667 143.767 369.067 175.767 370.134C224.967 371.867 256.167 358.934 266.033 332.934C269.367 323.867 269.1 303.601 265.367 295.467C260.967 285.734 257.367 281.334 249.633 276.401C239.367 269.867 225.367 265.867 194.033 260.534C156.967 254.401 151.367 251.734 151.367 240.934C151.367 230.667 162.033 225.201 181.5 225.201C198.567 225.201 210.167 230.667 214.7 240.801L217.233 246.534H240.433H263.767V241.201C263.767 238.401 263.1 232.801 262.3 228.934C257.767 207.867 243.367 194.134 218.833 187.734C205.367 184.134 170.7 183.067 155.5 185.734Z" fill="black"/>
<path d="M277.1 277.2V365.201L354.167 364.934L431.1 364.534L431.5 343.6L431.9 322.534L380.833 322.267L329.767 321.867L329.367 308.134L328.967 294.534H378.433H427.9L427.5 276.8L427.1 259.2L378.167 258.8L329.1 258.534V245.2V231.867H380.433H431.9L431.5 210.8L431.1 189.867L354.167 189.467L277.1 189.2V277.2Z" fill="black"/>
<path d="M123.1 434.667C118.7 437.2 117.1 440.134 117.1 445.2C117.1 451.334 120.833 455.067 129.1 457.2C138.167 459.6 140.3 460.934 138.3 463.334C136.3 465.867 131.9 465.734 128.967 463.067C127.633 461.867 124.167 460.667 121.233 460.4C116.3 460 115.767 460.267 115.767 462.934C116.033 476 143.9 478.8 150.433 466.4C152.433 462.8 151.1 455.6 147.9 452.667C146.433 451.334 141.767 449.334 137.5 448C132.7 446.534 129.767 444.934 129.767 443.734C129.767 441.067 135.633 440.534 136.567 443.067C137.1 444.534 139.1 445.2 143.233 445.2C148.033 445.2 149.1 444.8 149.1 442.667C149.1 441.334 148.033 438.8 146.567 437.067C144.433 434.534 142.567 433.867 134.967 433.6C129.633 433.334 124.567 433.734 123.1 434.667Z" fill="black"/>
<path d="M163.633 436.8C158.3 450.8 150.433 472.134 150.433 472.667C150.433 472.934 153.1 473.201 156.3 473.201C161.1 473.201 162.433 472.667 163.1 470.534C163.767 468.401 165.1 467.867 170.433 467.867C175.767 467.867 177.1 468.401 177.767 470.534C178.433 472.801 179.767 473.201 185.367 473.201C191.233 473.201 191.9 472.934 191.1 470.801C190.567 469.601 187.633 461.6 184.433 453.2C181.233 444.8 178.3 436.8 177.767 435.467C177.1 433.867 175.233 433.2 170.967 433.2C165.767 433.2 164.833 433.6 163.633 436.8ZM174.3 458.8C174.433 459.467 172.7 459.867 170.433 459.867C167.9 459.867 166.7 459.334 167.1 458.134C167.367 457.334 168.433 454.667 169.233 452.534L170.7 448.534L172.433 453.2C173.5 455.734 174.3 458.267 174.3 458.8Z" fill="black"/>
<path d="M186.433 434C186.433 434.4 189.233 443.467 192.567 454L198.7 473.201H205.633H212.567L218.167 455.2C221.233 445.334 224.167 436.267 224.567 435.2C225.233 433.6 224.167 433.2 219.233 433.2H213.233L210.433 442.8C205.5 460.267 206.3 460.8 198.967 435.467C198.433 433.734 196.833 433.2 192.3 433.2C189.1 433.2 186.433 433.6 186.433 434Z" fill="black"/>
<path d="M226.433 453.2V473.201H241.1H255.767V468.534V463.867H247.1H238.433V448.534V433.2H232.433H226.433V453.2Z" fill="black"/>
<path d="M258.433 453.2V473.201H274.433H290.433V468.534V463.867H280.433C270.7 463.867 270.433 463.734 270.433 460.534C270.433 457.334 270.833 457.2 278.433 457.2H286.433V452.534V447.867H278.433C271.5 447.867 270.433 447.467 270.433 445.334C270.433 443.067 271.367 442.934 279.767 443.6L289.1 444.267V438.667V433.2H273.767H258.433V453.2Z" fill="black"/>
<path d="M293.1 453.2V473.201H309.1H325.1V468.534V463.867H315.1C305.367 463.867 305.1 463.734 305.1 460.534C305.1 457.334 305.5 457.2 312.967 457.2C321.1 457.2 322.7 456 321.367 450.134C320.967 448.267 319.5 447.867 312.967 447.867C306.833 447.867 305.1 447.467 305.1 445.867C305.1 443.6 304.833 443.734 314.833 443.6C324.167 443.467 325.1 442.934 325.1 437.734V433.2H309.1H293.1V453.2Z" fill="black"/>
<path d="M328.833 434.8C328.7 435.734 328.567 444.8 328.567 454.8L328.433 473.201H334.033H339.633L340.033 462.4L340.433 451.467L346.433 462.4L352.433 473.201H358.7H365.1V453.2V433.2H359.1H353.233L352.833 443.467L352.433 453.867L346.433 443.6C340.433 433.2 340.433 433.2 334.833 433.2C331.233 433.2 328.967 433.867 328.833 434.8Z" fill="black"/>
<path d="M377.1 453.2V473.201H393.1H409.1V468.534V463.867H399.1C389.367 463.867 389.1 463.734 389.1 460.534C389.1 457.334 389.5 457.2 397.1 457.2H405.1V452.534V447.867H397.1C390.833 447.867 389.1 447.467 389.1 445.867C389.1 444.267 390.967 443.867 398.433 443.867H407.767V438.534V433.2H392.433H377.1V453.2Z" fill="black"/>
<path d="M411.767 453.067V473.201H417.767H423.633L424.033 463.067L424.433 452.934L430.167 463.067L435.9 473.201H441.9H447.767V453.2V433.2H442.433H437.233L436.833 444.134L436.433 455.2L430.433 444.534L424.433 433.867L418.033 433.467L411.767 433.067V453.067Z" fill="black"/>
<path d="M461.633 434.534C454.967 437.201 449.633 448.934 451.233 457.334C454.033 471.601 466.167 478.534 477.767 472.401C480.3 471.067 481.9 470.934 482.167 471.734C482.433 472.534 484.433 473.201 486.567 473.201H490.433V462.534V451.867H481.767H473.1V455.867C473.1 458.934 473.633 459.867 475.767 459.867C479.233 459.867 479.233 462.001 475.767 463.867C469.633 467.201 463.767 462.134 463.767 453.734C463.767 447.201 467.1 442.534 471.767 442.534C473.233 442.534 475.5 443.734 476.7 445.201C478.3 446.934 480.7 447.867 484.033 447.867C488.3 447.867 489.1 447.467 489.1 445.067C489.1 443.467 487.1 440.267 484.567 437.734C480.433 433.601 479.367 433.201 472.3 433.334C467.9 433.334 463.1 433.867 461.633 434.534Z" fill="black"/>
<path d="M493.1 453.2V473.201H507.767H522.433V468.534V463.867H513.767H505.1V448.534V433.2H499.1H493.1V453.2Z" fill="black"/>
<path d="M525.1 453.2V473.201H531.1H537.1V453.2V433.2H531.1H525.1V453.2Z" fill="black"/>
<path d="M546.433 434.934C542.3 437.067 539.233 443.067 540.3 447.201C541.5 452.134 545.9 455.334 554.567 457.867C560.7 459.467 562.433 460.534 562.167 462.267C561.5 465.734 555.1 465.867 552.033 462.534C550.167 460.401 548.3 459.867 544.567 460.267C541.9 460.534 539.5 461.067 539.233 461.334C538.833 461.601 539.5 463.867 540.567 466.267C544.833 476.534 564.967 477.601 572.833 468.134C574.967 465.334 574.833 457.067 572.7 454.001C571.633 452.667 566.7 450.134 561.633 448.534C556.167 446.801 552.433 444.801 552.433 443.734C552.433 441.067 557.767 440.667 560.167 443.067C561.367 444.267 564.567 445.201 567.633 445.201C574.3 445.201 574.833 442.667 569.233 437.067C565.767 433.734 564.3 433.201 557.5 433.201C553.233 433.201 548.3 434.001 546.433 434.934Z" fill="black"/>
<path d="M577.1 453.2V473.201H583.1H589.1V465.334V457.467L594.833 457.734L600.433 457.867L600.833 465.467L601.233 473.201H607.1H613.1V453.2V433.2H607.1H601.1V440.534V447.867H595.1H589.1V440.534V433.2H583.1H577.1V453.2Z" fill="black"/>
<path d="M174.967 484.134C174.567 484.667 171.1 493.867 167.233 504.801C163.233 515.601 158.433 528.534 156.567 533.601C154.7 538.534 153.1 542.934 153.1 543.201C153.1 543.601 156.967 543.867 161.9 543.867C170.3 543.867 170.567 543.734 171.9 539.867C173.367 535.867 173.367 535.867 183.767 535.867C194.167 535.867 194.167 535.867 195.633 539.867C196.967 543.867 197.1 543.867 206.567 543.867C215.1 543.867 215.9 543.601 215.1 541.467C214.567 540.267 212.167 533.734 209.767 527.201C207.367 520.534 202.833 508.134 199.633 499.601L193.9 484.001L184.7 483.601C179.633 483.334 175.233 483.601 174.967 484.134ZM189.1 521.467C189.1 522.134 186.7 522.534 183.767 522.534C180.833 522.534 178.433 522.001 178.433 521.334C178.433 520.267 181.5 510.934 183.233 506.534C183.767 505.334 185.1 507.601 186.567 512.534C187.9 516.934 189.1 520.934 189.1 521.467Z" fill="black"/>
<path d="M227.9 485.467C207.9 495.334 206.3 528.267 225.367 540.934C233.1 546 248.7 546.8 256.967 542.667C263.5 539.2 270.433 530.267 270.433 524.934C270.433 521.2 270.433 521.2 262.167 521.2C254.167 521.334 253.633 521.467 251.1 525.6C248.7 529.334 247.633 529.867 242.433 529.867C237.233 529.867 236.167 529.334 233.367 525.2C230.7 521.2 230.3 519.334 230.7 512C231.233 504.667 231.767 503.067 234.967 500.4C236.967 498.534 240.3 497.2 242.567 497.2C246.3 497.2 251.767 501.2 251.767 503.867C251.767 504.667 255.767 505.2 261.233 505.2H270.7L269.767 501.467C268.3 495.067 262.833 488.267 256.833 485.334C248.7 481.467 235.9 481.467 227.9 485.467Z" fill="black"/>
<path d="M334.967 483.734C334.7 484.001 334.433 497.734 334.433 514.134V543.867H352.433C371.633 543.867 377.233 542.534 383.633 536.801C394.167 527.067 394.7 502.801 384.7 492.134C378.7 485.601 374.833 484.534 354.7 483.867C344.167 483.467 335.233 483.467 334.967 483.734ZM369.5 501.734C375.9 508.134 375.233 520.934 368.167 526.534C365.767 528.401 362.7 529.201 358.433 529.201H352.033V513.867V498.534H359.233C364.967 498.534 366.967 499.201 369.5 501.734Z" fill="black"/>
<path d="M397.5 483.467C396.167 484.001 395.767 491.334 395.767 514.001V543.867H420.433H445.1V536.534V529.201H429.767H414.433V524.534V519.867H426.433H438.433V512.534V505.201H426.433C414.567 505.201 414.433 505.201 414.433 501.867C414.433 498.667 414.567 498.667 428.833 498.267L443.1 497.867L443.5 490.801L443.9 483.867L423.5 483.734C412.3 483.734 402.167 483.467 401.1 483.334C400.033 483.067 398.3 483.201 397.5 483.467Z" fill="black"/>
<path d="M450.433 483.601C449.633 483.867 449.1 495.334 449.1 514.001V543.867H457.1H465.1L465.233 525.467L465.367 507.201L470.167 525.467L475.1 543.867H481.9H488.833L493.233 526.801L497.767 509.867L498.167 526.801L498.567 543.867H506.433H514.433V513.867V483.867L508.167 483.734C504.567 483.734 499.767 483.467 497.5 483.334C495.1 483.201 492.7 483.334 492.033 483.734C491.5 484.134 489.633 489.601 487.9 495.867C481.767 519.067 482.567 518.667 477.633 500.667C475.233 492.001 472.967 484.667 472.7 484.267C471.9 483.601 452.3 482.934 450.433 483.601Z" fill="black"/>
<path d="M527.5 483.601C522.433 483.867 518.433 484.267 518.433 484.667C518.433 484.934 522.967 493.867 528.433 504.267C538.3 523.201 538.433 523.467 538.433 533.601V543.867H547.1H555.767V533.867C555.767 524.001 555.767 523.734 566.3 504.267C572.167 493.334 576.433 484.401 576.033 484.267C575.5 484.134 571.233 483.867 566.567 483.601L558.033 483.067L552.833 494.401L547.5 505.734L542.033 494.401L536.433 483.201L527.5 483.601Z" fill="black"/>
<path d="M288.7 488.801C284.967 498.534 269.1 542.001 269.1 542.934C269.1 543.467 272.967 543.867 277.633 543.867C285.767 543.867 286.167 543.734 287.767 539.867C289.367 535.867 289.5 535.867 299.767 535.867H310.167L311.1 539.867L312.033 543.867H321.9H331.767L328.167 534.134C326.167 528.934 321.233 515.467 317.1 504.534L309.767 484.534L300.3 484.134L290.833 483.734L288.7 488.801ZM302.3 513.067C303.233 516.134 304.3 519.601 304.7 520.667C305.233 522.134 304.033 522.534 299.9 522.534C293.633 522.534 293.5 522.134 296.833 512.401C299.367 504.534 299.9 504.667 302.3 513.067Z" fill="black"/>
</svg>
