<?xml version="1.0" encoding="UTF-8" standalone="no"?>
<svg
   xmlns:dc="http://purl.org/dc/elements/1.1/"
   xmlns:cc="http://creativecommons.org/ns#"
   xmlns:rdf="http://www.w3.org/1999/02/22-rdf-syntax-ns#"
   xmlns:svg="http://www.w3.org/2000/svg"
   xmlns="http://www.w3.org/2000/svg"
   viewBox="0 0 4391.5869 2388.4268"
   height="2388.4268"
   width="4391.5869"
   xml:space="preserve"
   id="svg2"
   version="1.1"><metadata
     id="metadata8"><rdf:RDF><cc:Work
         rdf:about=""><dc:format>image/svg+xml</dc:format><dc:type
           rdf:resource="http://purl.org/dc/dcmitype/StillImage" /></cc:Work></rdf:RDF></metadata><defs
     id="defs6" /><g
     transform="matrix(1.3333333,0,0,-1.3333333,0,2388.4267)"
     id="g10"><g
       transform="scale(0.1)"
       id="g12"><g
         transform="scale(2.02067)"
         id="g14"><path
           id="path16"
           style="fill:#ffffff;fill-opacity:1;fill-rule:nonzero;stroke:none"
           d="M 16300,0 H 0 V 8864.99 H 16300 V 0" /></g><g
         transform="scale(1.4687)"
         id="g18"><path
           id="path20"
           style="fill:#8cb5bf;fill-opacity:1;fill-rule:nonzero;stroke:none"
           d="m 16057.4,1517.06 h -2535.5 c -133.1,0 -2626.3,-22.27 -3353,-51.89 -47,6.13 -88.8,9.13 -110.8,9.13 l -2141.1,64 c -473.54,0 -548.17,-192.82 -548.17,-192.82 -77.35,-65.57 21.86,-55.77 279.7,-60.6 L 13897.7,840.675 c 580.6,-41.259 1162.4,60.938 1694.2,297.615 334.7,148.97 645.4,292.16 664.1,311.84 44,46.02 -151.8,66.93 -198.6,66.93" /></g><g
         transform="scale(1.62969)"
         id="g22"><path
           id="path24"
           style="fill:#91dbdb;fill-opacity:1;fill-rule:nonzero;stroke:none"
           d="m 16300,7279.59 c -41.4,-582.96 -116.7,-1153.72 -297.8,-1709.15 -181.2,-555.43 -472.1,-1083.44 -896.5,-1485.06 -442,-417.8 -994,-677.36 -1547.6,-929.74 -8.4,-3.69 -16.5,-7.61 -24.9,-11.29 -6.4,26.5 -12.3,53.44 -18.1,80.38 -105.1,499.54 -87.3,1034.86 66.2,1520.47 161.9,511.85 465.2,978.03 867.2,1333.34 552.1,487.66 1265.2,755.1 1851.5,1201.05" /></g><g
         transform="scale(1.60654)"
         id="g26"><path
           id="path28"
           style="fill:#e7f2f2;fill-opacity:1;fill-rule:nonzero;stroke:none"
           d="m 16264.5,6907.96 c -302.8,-150.28 -574.1,-350.35 -815.3,-583.7 188.4,27.75 388,-14.28 549.7,-111.25 34.1,-20.52 1.3,-72.75 -32.6,-52.4 -175.7,105.36 -398.3,139.54 -597.6,83.28 -71.3,-73.04 -140,-149.1 -205.7,-227.81 -53.1,-63.64 -104,-128.61 -154,-194.91 275.5,75.35 602.9,-64.37 825.7,-202.67 33.8,-21.03 1.2,-73.43 -32.6,-52.4 -228.6,141.89 -588.3,298.49 -859.3,165.06 -123.2,-171.86 -236.2,-350.94 -339.6,-535.89 10.3,3.06 20.7,5.7 29.9,7.2 316.1,50.09 622.9,-65.97 865.6,-265.3 30.3,-25 -2.1,-77.53 -32.6,-52.39 -241,197.92 -588,337.54 -901.8,239.83 -123.8,-228.25 -234.1,-464.47 -332.7,-704.74 289.5,111.3 633.1,-29.81 863.8,-203.91 31.3,-23.84 -1,-76.38 -32.6,-52.42 -230,173.67 -582.8,322.69 -864.9,173.61 -49.4,-124.37 -96.2,-249.73 -140,-375.1 -88.1,-253.77 -170.2,-513.02 -233.9,-775.39 -8.5,-3.8 -16.8,-7.72 -25.3,-11.51 -6.5,26.95 -12.4,54.21 -18.3,81.54 6.4,24.34 12.8,48.67 19.3,73.01 90.2,340.05 200.9,690.49 336.7,1035.96 -67.7,126.04 -135.3,252.09 -202.5,378.26 -19,34.98 35.7,63.86 54.2,28.76 59.4,-110.73 118.8,-221.47 178.2,-332.2 98.6,244.31 209.8,485.48 335.1,717.86 -74.4,94.94 -148.9,190.02 -223.1,285.22 -24.4,30.83 20.9,73.18 45.2,41.66 66.6,-84.64 132.9,-169.55 199.6,-254.62 3.5,-4.34 6.8,-9.37 10.4,-14.14 107.5,194.4 225.1,382.19 353.7,560.22 -21.2,94.54 -42,188.93 -63.1,283.48 -8.6,38.78 51.3,52.73 59.9,13.96 17.3,-77.29 34.6,-154.58 51.8,-232.13 119.5,159.34 247.6,310.37 386.1,450.61 4,64.76 7.9,129.96 11.6,194.9 2.4,39.54 63.9,37.97 61.8,-1.74 -2.8,-42.99 -5.1,-85.87 -7.6,-129.02 250.4,241.79 531.3,448.58 847.9,605.88 35.5,17.9 64.4,-36.76 28.9,-54.66" /></g><g
         transform="scale(1.85299)"
         id="g30"><path
           id="path32"
           style="fill:#76ccb3;fill-opacity:1;fill-rule:nonzero;stroke:none"
           d="m 16300,4830.56 c -523,-589.21 -933.5,-1228.61 -1330.3,-1909.4 -268.3,-460.28 -514.4,-949.76 -915.3,-1300.97 -655.6,-574.85 -1515.4,-592.99 -2252.4,-132.81 -7.8,4.64 -15.4,9.66 -23.3,14.57 0.1,16.78 0.5,33.57 1.3,50.19 23.1,692.44 302,1374.21 772.3,1883.22 462.2,500.43 1089.3,824.99 1740.5,1025.79 651,200.45 1331.2,285.38 2007.2,369.41" /></g><g
         transform="scale(1.80612)"
         id="g34"><path
           id="path36"
           style="fill:#e7f2f2;fill-opacity:1;fill-rule:nonzero;stroke:none"
           d="m 16264.2,4662.67 c -419.2,-178.09 -826.1,-383.06 -1217.9,-612.17 199,2.55 410.5,-15.28 587.2,-97.61 34.9,-16.06 16,-72.98 -18.8,-56.92 -203.1,94.35 -452.9,101.49 -674.9,91.41 -250.5,-150.21 -494.9,-310.83 -732.2,-481.03 329.2,48.84 705.1,46.95 989.9,-118.15 33.5,-19.44 0.3,-69.49 -33.1,-50.06 -304.8,176.63 -728.6,152.65 -1066.1,89.2 -235.3,-173.41 -463.2,-356.06 -683.8,-547.58 450.9,54.37 956.2,47.67 1369.4,-136.48 35.1,-15.45 16.3,-72.64 -18.9,-56.64 -431.8,192.01 -968.4,187.31 -1431.1,122.14 -218.5,-194.12 -429.4,-396.87 -631.5,-608.15 470.7,34.27 975.2,-60.85 1385.5,-287.97 33.8,-18.71 0.7,-68.76 -32.9,-50.27 -417.1,230.88 -939.7,321.35 -1414.8,272.96 -184.6,-196.39 -362.3,-399.59 -531.9,-609.37 -8,4.76 -15.8,9.91 -24,14.95 0.1,17.21 0.6,34.43 1.4,51.49 161.9,199.32 331.2,392.49 506.8,579.3 -31.5,288.63 1.8,589.77 85.2,867.83 11,37.21 68,18.05 56.7,-18.88 -75.8,-252.92 -109.1,-527.37 -87,-791.31 204.2,214.55 417.5,420.18 638.6,616.74 -13.2,254.74 -26.6,509.1 -39.8,763.79 -2.1,38.48 57.9,34.05 59.7,-4.16 12.5,-236.19 24.9,-472.39 37.3,-708.59 227.7,199.77 463.9,389.96 707.7,569.73 4.3,201.04 8.4,402.02 12.8,603.4 0.6,38.42 60.5,34.6 59.6,-4.21 -3.7,-184.98 -7.6,-370.02 -11.4,-554.67 253.8,184.65 515.8,358.39 784.8,520.39 10.5,149 21.1,297.99 31.5,447.26 2.5,38.22 62.4,34.68 59.7,-4.19 -9.4,-135 -18.8,-270.26 -28.3,-405.19 410.3,243.06 836.9,459.45 1277.3,646.51 35.5,15.01 63.1,-38.43 27.3,-53.5" /></g><path
         id="path38"
         style="fill:#434a59;fill-opacity:1;fill-rule:nonzero;stroke:none"
         d="m 16010.2,1798.6 -105.6,5756.6 -568.3,-14.8 c -1345.9,-35.1 -2402,-1330.9 -2360.1,-2941.2 42,-1610.2 1154.8,-2849.5 2500.7,-2814.5 l 533.3,13.9" /><g
         transform="scale(1.12526)"
         id="g40"><path
           id="path42"
           style="fill:#5cbec6;fill-opacity:1;fill-rule:nonzero;stroke:none"
           d="m 14244.7,6688.03 c -1196.1,31.19 -2033.3,-1088.54 -2070,-2500.93 -36.8,-1412.37 740.6,-2525.36 1936.7,-2556.46 1196,-31.19 2114.9,1033.27 2151.8,2445.65 36.8,1412.38 -822.5,2580.55 -2018.5,2611.74" /></g><g
         transform="scale(1.13103)"
         id="g44"><path
           id="path46"
           style="fill:#5679bf;fill-opacity:1;fill-rule:nonzero;stroke:none"
           d="m 14042.4,6679.48 c -1190,-31.03 -2125,-1195.37 -2088.3,-2600.55 36.6,-1405.18 1031,-2519.2 2220.9,-2488.17 1190,31.04 2125,1195.28 2088.3,2600.55 -36.6,1405.18 -1030.9,2519.21 -2220.9,2488.17 z m 4.8,-182.48 c 1087.4,28.37 1999.8,-1008.11 2033.7,-2310.47 34,-1302.35 -823.1,-2384.99 -1910.6,-2413.28 -1087.5,-28.38 -1999.8,1008.11 -2033.8,2310.46 -33.9,1302.35 823.2,2384.99 1910.7,2413.29 v 0" /></g><g
         transform="scale(1.03991)"
         id="g48"><path
           id="path50"
           style="fill:#54728c;fill-opacity:1;fill-rule:nonzero;stroke:none"
           d="m 16292.6,6600.64 v 0 c 5.4,-3.56 7.4,-11.73 4.5,-18.17 l -121.2,-270.41 c -2.9,-6.44 -9.8,-8.85 -15.1,-5.29 v 0 c -5.4,3.56 -7.5,11.73 -4.7,18.17 l 121.4,270.41 c 2.9,6.45 9.6,8.85 15.1,5.29" /></g><g
         transform="scale(1.08797)"
         id="g52"><path
           id="path54"
           style="fill:#54728c;fill-opacity:1;fill-rule:nonzero;stroke:none"
           d="m 16297,5483.52 v 0 c 3,-6.07 1.5,-13.97 -3.5,-17.65 L 16085,5313.02 c -5,-3.68 -11.6,-1.75 -14.6,4.31 v 0 c -3.1,5.98 -1.6,13.89 3.4,17.56 l 208.5,152.86 c 4.9,3.67 11.5,1.74 14.7,-4.23" /></g><g
         transform="scale(1.10693)"
         id="g56"><path
           id="path58"
           style="fill:#54728c;fill-opacity:1;fill-rule:nonzero;stroke:none"
           d="m 16299.8,4263.13 v 0 c 0.2,-6.95 -4.3,-12.74 -10.1,-12.92 l -240.9,-6.23 c -5.8,-0.18 -10.7,5.33 -10.9,12.29 v 0 c -0.2,6.95 4.5,12.73 10.2,12.83 l 241,6.32 c 5.8,0.18 10.5,-5.42 10.7,-12.29" /></g><path
         id="path60"
         style="fill:#54678c;fill-opacity:1;fill-rule:nonzero;stroke:none"
         d="m 15725.4,5790.3 183.3,463.5 213.1,-453.3 -118.1,-2.5 81.7,-991.9 c 3.5,-70 -51.1,-129.3 -121.2,-131.6 v 0 c -70.1,-2.2 -128.3,53.6 -129.2,123.7 l 7.7,994.7 -117.3,-2.6" /><path
         id="path62"
         style="fill:#54678c;fill-opacity:1;fill-rule:nonzero;stroke:none"
         d="m 15785.7,4736.5 c 3.1,-118.2 86.5,-211.8 186.4,-209.2 99.9,2.6 178.3,100.5 175.2,218.6 -3,118.1 -86.5,211.8 -186.4,209.2 -99.8,-2.6 -178.3,-100.5 -175.2,-218.6" /><g
         transform="scale(1.09196)"
         id="g64"><path
           id="path66"
           style="fill:#54728c;fill-opacity:1;fill-rule:nonzero;stroke:none"
           d="m 16297.3,3166.32 v 0 c -2.9,-6.14 -9.3,-8.43 -14.4,-5.04 l -215.4,141.3 c -5.1,3.39 -7.1,11.18 -4.3,17.31 v 0 c 2.7,6.14 9.1,8.43 14.4,5.04 l 215.3,-141.31 c 5.1,-3.39 7.1,-11.17 4.4,-17.3" /></g><g
         transform="scale(1.04682)"
         id="g68"><path
           id="path70"
           style="fill:#54728c;fill-opacity:1;fill-rule:nonzero;stroke:none"
           d="m 16293.2,2406.81 v 0 c -5.1,-3.82 -12,-1.82 -15.3,4.39 l -134.2,261.94 c -3.2,6.3 -1.6,14.52 3.6,18.34 v 0 c 5.1,3.72 12,1.72 15.2,-4.49 l 134.4,-261.93 c 3.1,-6.31 1.5,-14.53 -3.7,-18.25" /></g><path
         id="path72"
         style="fill:#54728c;fill-opacity:1;fill-rule:nonzero;stroke:none"
         d="m 16021.5,2156.2 v 0 c -6.4,-0.2 -11.7,6 -11.9,13.6 l -8.4,320.6 c -0.2,7.7 4.9,14.1 11.2,14.3 v 0 c 6.4,0.1 11.8,-6 12,-13.6 l 8.3,-320.7 c 0.2,-7.6 -4.8,-14 -11.2,-14.2" /><path
         id="path74"
         style="fill:#54728c;fill-opacity:1;fill-rule:nonzero;stroke:none"
         d="m 14969.4,2465.1 v 0 c -5.6,3.7 -7.8,12.2 -4.7,18.9 l 126.1,281.1 c 3,6.7 10.1,9.2 15.7,5.5 v 0 c 5.6,-3.7 7.7,-12.2 4.7,-18.9 l -126.1,-281.1 c -3,-6.7 -10.1,-9.2 -15.7,-5.5" /><path
         id="path76"
         style="fill:#54728c;fill-opacity:1;fill-rule:nonzero;stroke:none"
         d="m 14181.7,3363.3 v 0 c -3.4,6.5 -1.7,15.1 3.7,19.1 l 226.8,166.3 c 5.5,4 12.6,1.9 16,-4.6 v 0 c 3.4,-6.6 1.7,-15.2 -3.8,-19.2 l -226.8,-166.3 c -5.4,-4 -12.6,-1.9 -15.9,4.7" /><path
         id="path78"
         style="fill:#54728c;fill-opacity:1;fill-rule:nonzero;stroke:none"
         d="m 13869.4,4610.2 v 0 c -0.2,7.6 4.9,14 11.2,14.2 l 266.8,7 c 6.3,0.1 11.7,-6 11.9,-13.7 v 0 c 0.2,-7.6 -4.8,-14 -11.2,-14.2 l -266.7,-7 c -6.4,-0.1 -11.8,6 -12,13.7" /><path
         id="path80"
         style="fill:#54728c;fill-opacity:1;fill-rule:nonzero;stroke:none"
         d="m 14116.3,5871.6 v 0 c 3,6.8 10.1,9.2 15.7,5.6 l 235.2,-154.3 c 5.6,-3.7 7.7,-12.2 4.7,-18.9 v 0 c -3,-6.8 -10.1,-9.2 -15.7,-5.6 l -235.2,154.3 c -5.6,3.7 -7.7,12.2 -4.7,18.9" /><path
         id="path82"
         style="fill:#54728c;fill-opacity:1;fill-rule:nonzero;stroke:none"
         d="m 14856.1,6809.7 v 0 c 5.5,3.9 12.7,1.8 16,-4.7 l 140.6,-274.2 c 3.4,-6.5 1.7,-15.2 -3.7,-19.1 v 0 c -5.5,-4 -12.6,-1.9 -16,4.7 l -140.6,274.1 c -3.4,6.6 -1.7,15.2 3.7,19.2" /><path
         id="path84"
         style="fill:#54728c;fill-opacity:1;fill-rule:nonzero;stroke:none"
         d="m 15890.7,7172.9 v 0 c 6.4,0.2 11.8,-5.9 12,-13.6 l 8.3,-320.6 c 0.3,-7.7 -4.8,-14.1 -11.2,-14.2 v 0 c -6.3,-0.2 -11.7,5.9 -11.9,13.6 l -8.4,320.6 c -0.2,7.7 4.9,14.1 11.2,14.2" /><g
         transform="scale(1.0621)"
         id="g86"><path
           id="path88"
           style="fill:#54678c;fill-opacity:1;fill-rule:nonzero;stroke:none"
           d="m 16080.3,3901.34 219.7,-251.49 -319.8,99.15 25,38.13 -1041.7,638.64 c -34.7,21.84 -43.2,70.33 -18.7,107.52 v 0 c 24.3,37.19 72.3,48.58 106.2,25.33 l 1004.3,-695.42 25,38.14" /></g><g
         transform="scale(1.07269)"
         id="g90"><path
           id="path92"
           style="fill:#ffffff;fill-opacity:1;fill-rule:nonzero;stroke:none"
           d="m 16222,5684.88 c -342.6,503.41 -850.1,784.01 -1392.3,769.94 -21.8,-0.75 -40.2,16.78 -40.8,38.69 -0.5,21.9 16.8,40.18 38.7,40.73 287.8,7.56 564.6,-62.74 823.1,-208.63 245.7,-138.72 466,-344.84 636.9,-596.07 12.4,-18.18 7.6,-42.89 -10.4,-55.19 -6.9,-4.66 -14.7,-6.9 -22.3,-6.9 -12.8,0 -25.3,6.15 -32.9,17.43 z m -3087.3,-906.41 c -2.1,0 -4.2,0.18 -6.5,0.55 -21.6,3.55 -36.2,23.97 -32.8,45.59 20.1,122.96 49.5,244.62 87.7,361.53 6.8,20.78 29.1,32.25 50,25.35 20.9,-6.71 32.3,-29.18 25.5,-50.06 -36.9,-112.99 -65.4,-230.64 -84.8,-349.59 -3.1,-19.48 -20,-33.37 -39.1,-33.37" /></g><g
         transform="scale(1.45686)"
         id="g94"><path
           id="path96"
           style="fill:#7f635d;fill-opacity:1;fill-rule:nonzero;stroke:none"
           d="m 16300,6222.44 -412.7,-4714.61 c 4.2,-277.38 -757.8,-461.4 -1702,-475.54 -491.2,-7.35 -935.1,32.67 -1248.4,111.88 -288.8,73.11 -466.7,179.36 -468.7,312.39 l -18,152.79 -71.7,608.02 v 0.07 l -215.1,1825.85 -118.7,1006.69 -73.3,622.02 -28.2,239.79 -28.9,244.87 c 274.7,-206.5 825.4,-332.83 1451.9,-381.99 976.2,-76.74 2136.9,33.8 2725.9,320.22 80.7,39.2 150.7,81.75 207.9,127.55" /></g><g
         transform="scale(1.43831)"
         id="g98"><path
           id="path100"
           style="fill:#564240;fill-opacity:1;fill-rule:nonzero;stroke:none"
           d="m 16299.6,6173.49 c -4,-52.25 -55.2,-101.99 -108.5,-98.25 -18.7,1.34 -37.6,1.73 -56.4,0.95 -11.2,-0.5 -22.2,-1.95 -33.3,-2.51 -0.7,-0.06 -1.3,-0.06 -1.8,-0.11 -0.8,-0.12 -1.7,-0.28 -2.6,-0.45 -37.1,-6.64 -73.6,-14.88 -109.8,-25.31 -70.6,-20.36 -139.2,-46.45 -209.1,-69.26 -152.9,-49.9 -311,-84.92 -468.8,-116.03 -143.5,-28.33 -287.7,-52.53 -430.8,-82.3 -149.9,-31.17 -299.4,-61.95 -451.5,-79.63 -73.1,-8.47 -146.7,-11.93 -220.1,-18.89 -12.4,-1.23 -24.9,-2.57 -37.5,-3.97 -2.6,-0.28 -4.7,-0.49 -6.5,-0.66 -16.9,-2.34 -33.8,-5.08 -50.7,-7.53 -42.1,-6.25 -84.4,-12.11 -126.6,-17.62 -74.1,-9.71 -148.6,-18.57 -223.4,-20.69 -73.7,-2.07 -147.6,2.07 -221.5,0.28 -21.6,-0.5 -42.9,-2.01 -64.4,-4.12 -1.3,-0.12 -5,-0.62 -7.8,-1.01 -7.2,-1 -14.3,-2.06 -21.4,-3.07 -39.7,-5.63 -79.4,-11.6 -119.4,-12.37 -71.3,-1.51 -144,-2.07 -214.8,6.85 -41.8,5.24 -83.1,11.99 -124.6,18.85 -8.4,1.39 -16.6,2.79 -25.1,4.07 -0.7,0.17 -8.2,1.28 -13.9,2.12 -5.4,0.61 -17.5,2.12 -17.5,2.12 -6.7,0.73 -13.3,1.34 -20.1,1.89 -72.4,5.53 -144.6,2.18 -216.9,10.71 -75.4,8.86 -149.3,22.64 -223.4,39.58 -17.8,4.08 -35.6,7.59 -53.7,10.43 -2.7,0.28 -11.8,1.51 -14.8,1.84 -8.7,0.9 -17.3,1.79 -26,2.57 -34.5,3.18 -69.1,5.35 -103.6,8.7 -48.9,4.68 -99,12.1 -147.5,24.48 l -28.6,242.88 c 1.3,-0.78 2.5,-1.56 3.9,-2.28 7.6,-4.41 15.3,-8.59 23.2,-12.49 0.3,-0.11 4.7,-2.23 8.9,-4.13 5.2,-1.9 17.4,-6.69 19.2,-7.24 5.7,-1.9 11.5,-3.63 17.4,-5.24 19.9,-5.59 40.2,-9.88 60.6,-13.29 3.7,-0.66 24.2,-3.17 19.4,-2.72 4.4,-0.5 8.8,-1.01 13.2,-1.51 41.4,-4.23 82.9,-6.63 124.3,-10.71 83.3,-8.19 162.8,-28.6 244.9,-43.55 17.8,-3.22 35.6,-6.12 53.4,-8.69 3.2,-0.33 18.2,-2.23 19.4,-2.35 8.5,-0.94 17,-1.77 25.5,-2.56 39.9,-3.56 79.8,-5.24 119.8,-5.24 74.5,0 147.6,-11.65 220.9,-23.86 10.1,-1.67 20.1,-3.35 30.2,-4.96 1.6,-0.23 16.4,-2.35 19.7,-2.9 12.5,-1.57 25,-2.85 37.6,-3.73 32.4,-2.41 65,-1.63 97.5,-1.96 38.1,-0.33 76.3,-1.45 114.3,2.29 4.7,0.44 9.3,1 14,1.56 2.5,0.33 12.4,1.61 15.3,2.06 23.7,3.4 47.4,6.81 71.3,9.64 22.3,2.69 44.9,4.18 67.5,4.97 49.3,1.55 98.8,-0.39 148,-0.89 74.7,-0.73 148.6,3.67 222.7,11.82 20,2.22 40,4.62 59.9,7.19 2.9,0.34 13.3,1.73 15.8,2.06 5.1,0.68 10.1,1.34 15.2,2.07 36.1,5.06 72.2,10.7 108.3,15.83 77.4,10.98 154.9,16.4 232.7,22.58 38.9,3.13 77.7,7.03 116.4,12.05 1.3,0.17 2.7,0.39 4.5,0.67 8.9,1.28 17.7,2.57 26.6,3.9 15.9,2.45 31.8,5.02 47.6,7.69 144.8,24.37 287.7,58.05 431.8,85.54 139.5,26.59 279.4,50.01 418.1,80.51 134.6,29.61 267.5,64.69 397.7,109.63 130.5,45.05 267,92.78 407.2,82.91 60.9,-4.29 106,-46.39 108.8,-108.73 0.1,-3.51 0.1,-6.97 -0.3,-10.48" /></g><g
         transform="scale(1.45686)"
         id="g102"><path
           id="path104"
           style="fill:#684e4a;fill-opacity:1;fill-rule:nonzero;stroke:none"
           d="m 15307.1,5861.32 -205.4,-4752.15 c 474.8,80.86 788.4,220.54 785.7,398.66 l 412.6,4714.64 c -201.9,-161.45 -561.3,-282.25 -992.9,-361.15" /></g><g
         transform="scale(1.46204)"
         id="g106"><path
           id="path108"
           style="fill:#e2e2e2;fill-opacity:1;fill-rule:nonzero;stroke:none"
           d="m 16300,6060.46 -3.5,421.15 -226.8,20.78 c -367,162.69 -3697.6,112.73 -4059.6,-60.9 l -221.8,-27.5 4.8,-421.13 c -0.3,-165.23 1016.8,-328.37 2261.3,-309.71 1244.6,18.67 2245.2,180.31 2245.6,377.31" /></g><g
         transform="scale(1.46193)"
         id="g110"><path
           id="path112"
           style="fill:#f7f7f7;fill-opacity:1;fill-rule:nonzero;stroke:none"
           d="m 14047.6,6169.81 c -1245,-18.68 -2256.1,90.85 -2258.4,244.64 -2.3,153.79 1005.1,293.59 2250.1,312.27 1245,18.67 2256.1,-90.86 2258.4,-244.65 2.3,-153.78 -1005.1,-293.58 -2250.1,-312.26" /></g><g
         transform="scale(1.41796)"
         id="g114"><path
           id="path116"
           style="fill:#e2e2e2;fill-opacity:1;fill-rule:nonzero;stroke:none"
           d="m 16297.2,6816.94 -3,272.9 -182.3,19.77 c -296.5,107.13 -2990.4,66.73 -3283.6,-49.25 l -179.5,-25.2 3.1,-272.9 c 2.7,-184.19 821.4,-273.08 1828,-257.98 1006.7,15.1 1820.1,128.47 1817.3,312.66" /></g><g
         transform="scale(1.4176)"
         id="g118"><path
           id="path120"
           style="fill:#f7f7f7;fill-opacity:1;fill-rule:nonzero;stroke:none"
           d="m 14478.2,6871.26 c -1006.9,-15.11 -1824.5,59.1 -1826.1,165.73 -1.6,106.63 813.4,205.32 1820.3,220.42 1006.8,15.1 1824.4,-59.09 1826,-165.73 1.6,-106.63 -813.3,-205.32 -1820.2,-220.42" /></g><g
         transform="scale(1.40367)"
         id="g122"><path
           id="path124"
           style="fill:#5679bf;fill-opacity:1;fill-rule:nonzero;stroke:none"
           d="m 16288.2,7149.16 c -18.8,-23.93 -76.2,-41.93 -178.1,-55.3 -27.3,-3.65 -58,-6.91 -91.9,-9.89 -25.8,-2.28 -51.3,-4.11 -75.1,-5.65 -73.9,-4.86 -131.5,-6.4 -134.7,-6.52 h -2.4 c -24.4,0 -44.9,9.55 -46.2,21.89 -1.4,12.74 18.2,23.65 43.7,24.34 0.7,0 73.1,18.39 149.2,41.37 40.2,12.11 81.3,25.54 113.5,38.22 23.5,9.25 -42.3,13.88 -38.3,26.45 4.1,12.63 27.7,21.19 52.9,19.2 7.8,-0.63 25.1,-2.17 46.5,-4.97 51.1,-6.57 126.2,-20.29 155.4,-45.93 15.3,-13.44 17.3,-28.35 5.5,-43.21" /></g><g
         transform="scale(1.23348)"
         id="g126"><path
           id="path128"
           style="fill:#ffffff;fill-opacity:1;fill-rule:nonzero;stroke:none"
           d="m 15876.6,7267.53 c -970.6,0 -1524.7,132.28 -1530.9,133.79 -19.1,4.69 -30.9,24.03 -26.2,43.22 4.6,19.17 24,30.94 43.2,26.26 6.8,-1.67 700.9,-166.98 1899.6,-124.9 19.7,0.71 36.2,-14.75 37,-34.49 0.7,-19.73 -14.8,-36.29 -34.5,-36.99 -135.9,-4.77 -265.5,-6.89 -388.2,-6.89" /></g><g
         transform="scale(1.24999)"
         id="g130"><path
           id="path132"
           style="fill:#ffffff;fill-opacity:1;fill-rule:nonzero;stroke:none"
           d="m 15869.1,7749.13 c -815.9,0 -1221.4,86.73 -1226,87.74 -19,4.18 -31,23 -26.9,42.03 4.2,19.03 23.1,31.08 42,26.91 5.3,-1.15 534.2,-113.86 1604.8,-79.66 19.5,0.72 35.7,-14.66 36.4,-34.14 0.6,-19.48 -14.7,-35.77 -34.2,-36.4 -141.3,-4.51 -273.4,-6.48 -396.1,-6.48" /></g><g
         transform="scale(1.30689)"
         id="g134"><path
           id="path136"
           style="fill:#564240;fill-opacity:1;fill-rule:nonzero;stroke:none"
           d="m 16131,2464.33 c -169.1,-448.86 -523.7,-1132.08 -523.7,-1132.08 l -796.4,339.51 c -293.7,125.25 -616,167.49 -932,122.27 v 0 l -79.9,677.79 v 0.08 l 0.6,4.06 2483,1186.55 c 0,0 17.4,-749.41 -151.6,-1198.18" /></g><g
         transform="scale(1.48083)"
         id="g138"><path
           id="path140"
           style="fill:#f25c5c;fill-opacity:1;fill-rule:nonzero;stroke:none"
           d="m 16266.6,9716.04 -730.9,-762.44 -248.7,-2092.46 -16.3,-136.91 c -25.9,-3.46 -55,-6.55 -87.1,-9.37 -24.5,-2.16 -48.7,-3.9 -71.2,-5.36 l 9.1,76.85 257.2,2163.94 c 6.4,53.72 34.3,106.58 99.7,156.9 l 741.6,749.44 c 14.8,14.89 39.9,10.83 49.1,-8.07 l 13.8,-28.05 c 17.1,-34.78 10.6,-76.53 -16.3,-104.47" /></g><g
         transform="scale(1.31643)"
         id="g142"><path
           id="path144"
           style="fill:#564240;fill-opacity:1;fill-rule:nonzero;stroke:none"
           d="m 16129.6,3831.58 c 40.6,170.38 94.8,150.33 124.4,553.92 29.7,403.59 46,476.59 46,476.59 l -1420,251.51 1249.6,-1282.02" /></g><g
         transform="scale(1.22181)"
         id="g146"><path
           id="path148"
           style="fill:#564240;fill-opacity:1;fill-rule:nonzero;stroke:none"
           d="m 14513.9,4806.64 -10.6,14.49 -141.5,1200.35 c 225,-168.36 587,-274.51 1149.9,-376.25 788.3,-142.57 -997.8,-838.59 -997.8,-838.59" /></g><g
         transform="scale(1.31272)"
         id="g150"><path
           id="path152"
           style="fill:#ffe164;fill-opacity:1;fill-rule:nonzero;stroke:none"
           d="m 13199.5,4726.38 c -45,-624.05 -72.7,-1071.83 -204,-1396.72 -131.8,-326.2 -687.8,-937.45 -687.8,-937.45 l 408.4,-124.09 c 845.5,-256.95 1719.9,-406.94 2602.7,-446.33 v 0 c 0,0 531.7,463.32 792.8,1166.13 138.5,372.89 138.4,673.04 188.4,1409.98 l -3100.5,328.48" /></g><g
         transform="scale(1.31491)"
         id="g154"><path
           id="path156"
           style="fill:#ffe164;fill-opacity:1;fill-rule:nonzero;stroke:none"
           d="m 16272.8,4390.5 -125.3,13.31 -2970,314.69 c 7.8,108.76 6.5,210.82 0.8,300.71 -13.4,213.4 -51.8,357.89 -51.8,357.89 l 1508.1,-90.95 c 779.9,-82.97 1469.2,-285.19 1469.2,-285.19 0,0 196.2,-211.19 169,-610.46" /></g><g
         transform="scale(1.12596)"
         id="g158"><path
           id="path160"
           style="fill:#434a59;fill-opacity:1;fill-rule:nonzero;stroke:none"
           d="m 16300,4878.84 c 0,0 -99,-573.55 -91.4,-783.5 13.3,-51.16 33.1,-36.42 5.6,-114.84 0,0 -34,-10.12 -61,6.84 -25.9,18.39 -33.8,31.35 -58.6,106.31 0,0 13,260.05 23.2,479.5 -74.1,-197.96 -171,-448.68 -171,-448.68 l -76,-60.13 c -5.7,16.88 -13.4,51.16 -22.1,95.39 l -1.5,1.06 c -0.1,1.25 -0.2,2.49 0.8,3.91 -29.3,147.25 -72.9,397 -88.2,486.87 -32.5,-232.07 -82.8,-604.28 -82.8,-604.28 -38.4,-82.24 -54.2,-97.78 -84.1,-121.32 -29.9,-24.78 -62.7,-22.2 -62.7,-22.2 -13.6,74.96 4.1,63.23 25.4,118.39 45.6,215.99 62.1,687.32 62.1,687.32 -14.8,19.63 -17.1,61.99 -17.1,61.99 17.1,59.68 58.2,95.74 58.2,95.74 57.9,9.15 123.9,-52.4 123.9,-52.4 l 0.1,-1.24 c 24.2,-36.15 52.2,-115.72 52.2,-115.72 7.2,-19.28 43.8,-208.36 72.9,-364.49 83.1,206.58 249.8,581.99 249.8,581.99 29.2,8.34 81.6,44.4 142.3,-36.51" /></g><g
         transform="scale(1.15325)"
         id="g162"><path
           id="path164"
           style="fill:#434a59;fill-opacity:1;fill-rule:nonzero;stroke:none"
           d="m 16078,4252.78 c 33.7,-5.98 63.5,23.15 70.3,60.7 2.2,12.48 15,115.67 -0.5,122.43 0,0 -70.6,-101.19 -69.8,-183.13 z m 205.4,3.81 c 16.6,-16.47 3.8,-54.71 3.8,-54.71 -23.5,-51.77 -55.3,-138.65 -119.3,-179.06 -99.9,-68.93 -153.1,-32.17 -185.4,-6.42 -41.7,32 -41.8,76.05 -46.3,105.01 -29.1,179.23 110.9,424.37 110.9,424.37 100.3,22.46 161.3,-61.31 169.6,-122.87 10.7,-83.25 -35,-144.9 -69.1,-178.19 -28.5,-30.18 -75.9,-33.13 -75.9,-33.13 -42.4,-90.61 -26,-126.77 -5.7,-164.84 4.6,-8.06 17.5,-13.96 17.5,-13.96 89.4,11.45 199.9,223.8 199.9,223.8" /></g><g
         transform="scale(1.17584)"
         id="g166"><path
           id="path168"
           style="fill:#434a59;fill-opacity:1;fill-rule:nonzero;stroke:none"
           d="m 16082.2,4206.78 c 33.2,-5.87 62.3,22.7 69,59.53 2.2,12.25 14.7,113.45 -0.5,120.08 0,0 -69.3,-99.24 -68.5,-179.61 z m 201.5,3.74 c 16.3,-16.24 3.7,-53.66 3.7,-53.66 -23,-50.77 -54.2,-135.99 -116.9,-175.62 -98.1,-67.7 -150.3,-31.56 -182,-6.3 -40.8,31.39 -40.9,74.59 -45.4,102.99 -28.4,175.79 108.7,416.22 108.7,416.22 98.5,22.02 158.3,-60.13 166.4,-120.51 10.5,-81.73 -34.2,-142.11 -67.8,-174.77 -27.8,-29.6 -74.4,-32.49 -74.4,-32.49 -41.5,-88.87 -25.4,-124.33 -5.5,-161.67 4.5,-7.91 17.1,-13.69 17.1,-13.69 87.6,11.22 196.1,219.5 196.1,219.5" /></g><g
         transform="scale(1.19462)"
         id="g170"><path
           id="path172"
           style="fill:#434a59;fill-opacity:1;fill-rule:nonzero;stroke:none"
           d="m 16281.4,4471.3 c -5.4,-4.19 -95.2,-25.03 -95.2,-25.03 -1.2,-0.17 -3.5,-1.59 -5.8,-1.84 -16.8,-122.55 -25,-185 -29.5,-249.46 -6.4,-109.48 -2.8,-141.05 2.4,-187.75 4.1,-35.08 21.7,-44.87 34.4,-42.19 57.8,12.47 89.7,116.69 89.7,116.69 11.1,-4.69 22.6,-22.27 22.6,-22.27 -5.8,-32.65 -25.1,-111.75 -115.6,-137.45 -84.7,-14.4 -126.5,71.99 -126.5,71.99 -56.7,92.83 -37.5,255.9 -14,423.06 -17.4,-3.18 -23.1,-5.02 -23.1,-5.02 -18.9,0.17 -31.7,40.1 -31.7,40.1 5.8,0.67 20.8,3.6 69.4,13.89 24.5,116.36 45.9,199.23 45.9,199.23 85.9,13.31 97.7,-58.68 97.7,-58.68 -0.7,-24.86 -7.9,-75.42 -18.7,-115.69 63.7,11.98 96.3,15.74 96.3,15.74 9.7,-11.88 1.7,-35.32 1.7,-35.32" /></g><g
         transform="scale(1.24823)"
         id="g174"><path
           id="path176"
           style="fill:#434a59;fill-opacity:1;fill-rule:nonzero;stroke:none"
           d="m 16300,4089.46 c -9.2,-28.28 -61.9,-151.98 -84.5,-202.12 -20.8,-45.43 -29.2,-52 -46.8,-56.32 -78.6,-15.71 -110.1,131.22 -115.2,156.69 -12.7,-77.3 -58.7,-190.1 -156,-151.33 -67.2,24.04 -76.5,95.42 -82.2,135.47 -14.9,100.22 41.4,342.09 41.4,342.09 41.9,19.54 102.8,-48.23 102.8,-48.23 -20.3,-49.91 -31.9,-266.3 -34.6,-361.71 -1.9,-52.31 12.5,-40.46 19.7,-33.97 45.9,34.69 90.8,157.5 109.1,215.1 21.9,65.86 48.8,256.85 48.8,256.85 28.1,12.25 86.5,-24.04 86.5,-24.04 13.6,-9.77 12.1,-46.22 12.1,-46.22 -17.3,-66.5 -47.7,-296.34 -36.4,-375.49 1.1,-10.02 9.5,-4.57 9.5,-4.57 31.7,20.59 105.5,227.12 105.5,227.12 12.1,2.56 20.3,-29.32 20.3,-29.32" /></g><g
         transform="scale(1.2763)"
         id="g178"><path
           id="path180"
           style="fill:#434a59;fill-opacity:1;fill-rule:nonzero;stroke:none"
           d="m 16118.6,3980.96 c -31.2,-26.88 -40,-134.14 -40,-134.14 48,5.48 40,134.14 40,134.14 z m 176.7,149.65 c -11.8,-13.48 -64.6,-73.81 -64.6,-73.81 -2.2,-48.97 -47,-258.87 -108.2,-274.7 -68.8,-17.86 -89.1,14.18 -91.4,53.75 7.5,118.23 44.2,165.64 92.3,209.83 2.5,16.92 8.6,128.34 8.5,168.22 -0.3,22.09 -15.2,25.93 -22.8,25.07 -37,-5.33 -101.5,-275.09 -108,-412.05 -2,-41.21 -7.6,-413.7 -7.6,-413.7 -34.8,-15.04 -89.4,17.48 -89.4,17.48 -8.8,9 -9.1,21.15 -9.1,21.15 -3.2,18.41 -14.6,258.33 -16.2,321.24 -7.7,261.54 26.2,497.93 26.2,497.93 66.3,10.89 96.4,-38.87 96.4,-38.87 -0.9,-60.96 -2.8,-120.97 -2.8,-120.97 6.8,27.34 35.7,103.74 51.2,133.2 14.8,26.01 44,41.52 71.3,44.65 35.1,2.91 43.7,-5.01 55.6,-11.35 46,-25.78 51,-165.8 51,-165.8 4.9,4.94 64.3,47.17 64.3,47.17 4.9,-3.92 8,-21.23 3.3,-28.44" /></g><g
         transform="scale(1.25333)"
         id="g182"><path
           id="path184"
           style="fill:#434a59;fill-opacity:1;fill-rule:nonzero;stroke:none"
           d="m 13985.1,3175.31 c 0,0 1941.1,264.18 2313.5,205.61 l 1.4,-82.1 -529.6,-13.72 528.5,-15.48 0.3,-38.7 c 0,0 -374.8,24.34 -749.7,0.17 -374.8,-24.1 -1557.4,-100.7 -1557.4,-100.7 l -7,44.92" /></g><g
         transform="scale(1.26974)"
         id="g186"><path
           id="path188"
           style="fill:#434a59;fill-opacity:1;fill-rule:nonzero;stroke:none"
           d="m 16167.8,3328.96 -9.2,-64.5 141.4,-2.21 -1.3,69.15 -130.9,-2.44" /></g><g
         transform="scale(1.31491)"
         id="g190"><path
           id="path192"
           style="fill:#fccb57;fill-opacity:1;fill-rule:nonzero;stroke:none"
           d="m 16103.8,5000.96 c 0,0 -54.6,20.84 -149.7,52.93 -583.5,196.74 -1192.6,307.62 -1807.9,330.67 l -1215.5,45.55 c 0,0 237.7,-162.59 247.6,-410.9 1630.5,758.61 3094.5,-628.71 3094.5,-628.71 27.2,399.27 -169,610.46 -169,610.46" /></g><path
         id="path194"
         style="fill:#8cb5bf;fill-opacity:1;fill-rule:nonzero;stroke:none"
         d="M 9110.46,1715.9 H 7610.84 c -78.71,0 -1553.28,-17.8 -1983.08,-41.6 -27.79,4.9 -52.52,7.3 -65.52,7.3 l -1266.3,51.4 c -280.07,0 -324.21,-154.7 -324.21,-154.7 -45.74,-52.6 12.92,-44.7 165.4,-48.6 l 4873.22,78.8 c 27.67,0 193.48,19.5 217.58,53.7 25.98,37 -89.8,53.7 -117.47,53.7" /><path
         id="path196"
         style="fill:#434a59;fill-opacity:1;fill-rule:nonzero;stroke:none"
         d="m 5855.26,14847 c 0,0 32.4,123.7 -66.53,162.3 -98.94,38.5 -109.35,-46.6 -201.4,-81.2 -92.05,-34.5 -347.51,7.3 -379.44,-122.8 -31.94,-130.2 14.51,-227.2 14.51,-227.2 0,0 -69.67,-170.3 92.9,-342.5 162.57,-172.2 306.73,-330.3 408.83,-309.1 102.1,21.2 131.13,920.5 131.13,920.5" /><path
         id="path198"
         style="fill:#404859;fill-opacity:1;fill-rule:nonzero;stroke:none"
         d="m 7117.23,1788.6 c -103.85,45.5 -117.05,137.9 -161.24,225.6 -2.98,5.9 -20.06,131.9 -20.18,141.9 -0.53,43.5 -126.12,158.9 -184.62,68.4 -115.32,-178.4 -241.75,100.4 -235.06,25.9 19.92,-221.6 -81.78,-578.9 0.75,-603.2 175.85,-51.6 996.59,-111.6 1012.14,-25.4 9.34,51.7 -232.2,88.2 -411.79,166.8" /><path
         id="path200"
         style="fill:#404859;fill-opacity:1;fill-rule:nonzero;stroke:none"
         d="m 5393.15,1788.6 c -103.85,45.5 -117.06,137.9 -161.25,225.6 -2.98,5.9 -20.05,131.9 -20.18,141.9 -0.53,43.5 -126.11,158.9 -184.62,68.4 -115.32,-178.4 -241.75,100.4 -235.06,25.9 19.92,-221.6 -81.78,-578.9 0.76,-603.2 175.85,-51.6 996.58,-111.6 1012.14,-25.4 9.34,51.7 -232.21,88.2 -411.79,166.8" /><path
         id="path202"
         style="fill:#84c0ce;fill-opacity:1;fill-rule:nonzero;stroke:none"
         d="m 5543.14,9861.42 c 207.38,457.98 1784.16,1052.28 2200.09,1150.18 30.43,-461.3 243.18,-748.6 494.89,-1246.07 203.32,-401.85 22.11,-2914.73 -331.4,-4942.93 -258.28,-1481.8 -699.23,-2692.9 -699.23,-2692.9 0,0 -15.47,-95.7 -416.63,-95.7 -385.58,0 -446.46,95.7 -446.46,95.7 0,0 378.07,2357.2 447.32,3149.5 64.74,740.6 99,2971.87 99,2971.87 L 5492.95,2131.1 c 0,0 -242.59,-99.2 -436.86,-97.1 -256.19,2.7 -422.48,87.8 -422.48,87.8 0,0 671.67,7214.23 909.53,7739.62" /><path
         id="path204"
         style="fill:#f27c79;fill-opacity:1;fill-rule:nonzero;stroke:none"
         d="m 6643.03,13380.6 c 320.98,-760.1 2275.51,-1943.7 3147.44,-1482.7 482.83,255.3 305.33,1201.4 92.17,1892.3 -200.81,650.8 -367.59,1118.7 -545.97,1050 -276.49,-106.4 -200.89,-2011.9 -200.89,-2011.9 0,0 -1624.86,894.5 -2196.42,851.6 -493.58,-37.1 -361.44,-145.1 -296.33,-299.3" /><path
         id="path206"
         style="fill:#434a59;fill-opacity:1;fill-rule:nonzero;stroke:none"
         d="m 6643.03,13380.6 c -65.11,154.2 -264.64,329.9 230.27,321.7 515.71,-8.5 1441.89,-421.7 2023.01,-732.5 46.89,-159.5 150.4,-679.5 -202.05,-1072.3 -870.87,262.1 -1834.26,969.3 -2051.23,1483.1" /><path
         id="path208"
         style="fill:#434a59;fill-opacity:1;fill-rule:nonzero;stroke:none"
         d="m 5221.62,11142.8 c -174.23,883.5 -624.16,1613 -585.69,1793.7 50.93,239.3 766.28,614.6 1111.74,718 191.32,57.3 962.33,138.3 1147.97,40.9 259.57,-136.2 585.48,-615.2 854.81,-1379.1 618.1,-1753.2 516.77,-2540.5 589.28,-3006.95 -87.25,-59.57 -362.02,-335.46 -1269.4,-574.06 C 6037.91,8463.82 5234,8537.86 5108.06,8585.94 c 137.79,566.43 302.55,1598.56 113.56,2556.86" /><path
         id="path210"
         style="fill:#5da3af;fill-opacity:1;fill-rule:nonzero;stroke:none"
         d="m 6857.54,8176.02 c 9.39,-0.02 18.41,5.15 22.42,13.73 103.78,222.03 217.82,175.36 334.4,266.44 10.17,7.95 11.97,22.63 4.03,32.81 -7.96,10.17 -22.66,11.96 -32.8,4.02 -124.76,-97.46 -242.36,-56.59 -349.62,-285.81 -5.34,-11.42 0.17,-24.59 12.32,-29.41 3.01,-1.2 6.15,-1.77 9.25,-1.78" /><path
         id="path212"
         style="fill:#c66c67;fill-opacity:1;fill-rule:nonzero;stroke:none"
         d="m 9529.82,12466.9 c 0.13,0.1 0.27,0.2 0.27,0.2 7.66,4.2 10.39,13.7 6.23,21.2 -134.82,244.1 -384.02,350 -394.56,354.4 -7.94,3.3 -17.05,-0.4 -20.36,-8.4 -3.3,-7.9 0.44,-17 8.38,-20.4 2.49,-1 249.85,-106.3 379.27,-340.6 4.08,-7.4 13.31,-10.2 20.77,-6.4" /><path
         id="path214"
         style="fill:#ff867a;fill-opacity:1;fill-rule:nonzero;stroke:none"
         d="m 5464.18,14282.3 72.34,-710.2 c 20.65,-76.1 252.32,-315.3 538.32,-124.7 90.45,60.3 5.76,223.3 -49.38,292.7 l -397.35,656.8 -163.93,-114.6" /><path
         id="path216"
         style="fill:#c66c67;fill-opacity:1;fill-rule:nonzero;stroke:none"
         d="m 5924.44,13909.2 c -181.91,6.7 -299.03,126.5 -299.03,126.5 l 201.21,37.2 97.82,-163.7" /><path
         id="path218"
         style="fill:#f27c79;fill-opacity:1;fill-rule:nonzero;stroke:none"
         d="m 9315.87,14925.7 c 16.84,30.4 108.67,75.9 159.72,92.2 97.55,31.3 140.59,83.4 160.51,121.4 19.92,37.9 56.88,-29.9 21.18,-81.6 -35.69,-51.7 -129.57,-110.1 -74.5,-110.8 55.07,-0.7 243.72,97.9 296.12,-15 43.68,-94.1 -217.96,-259.8 -451.79,-247.2 -66.26,3.6 -205.03,71.9 -111.24,241" /><path
         id="path220"
         style="fill:#ff867a;fill-opacity:1;fill-rule:nonzero;stroke:none"
         d="m 5469.75,14524.9 33.03,-360.8 c 20.32,-117.9 130.67,-198.6 249.11,-181.5 94.65,13.7 149.61,37.3 252.37,97.3 85.61,50 94.5,156.7 43.36,275.1 -66.36,153.6 -171.14,276.2 -230.88,338.7 -136.19,142.4 -351.3,67.9 -346.99,-168.8" /><path
         id="path222"
         style="fill:#ffffff;fill-opacity:1;fill-rule:nonzero;stroke:none"
         d="m 5925.6,14501.7 c -33,-20.1 -93.49,-52.9 -174.71,-79.6 -14.14,-4.7 -17.75,-23.1 -6.39,-32.8 22.17,-18.7 57.5,-42.8 97.16,-47.5 59.93,-7.1 109.88,44.6 113.13,142.7 0.5,15.3 -16.1,25.2 -29.19,17.2" /><path
         id="path224"
         style="fill:#ff867a;fill-opacity:1;fill-rule:nonzero;stroke:none"
         d="m 5426.61,14420.8 c -25.36,28.4 -69.65,64.8 -93.3,6.4 -34.41,-84.9 87.92,-223.9 168.47,-172.7 59.8,38 -61.82,151.4 -75.17,166.3" /><path
         id="path226"
         style="fill:#b28364;fill-opacity:1;fill-rule:nonzero;stroke:none"
         d="m 6764.97,11383.6 -12.57,-937 v 0 c -6.35,-54.5 140.42,-106 326.14,-127.6 185.72,-21.6 340.07,-5.1 346.41,49.4 l 202.68,914.9 c -161.38,-97.5 -727.97,-31.7 -862.66,100.3" /><path
         id="path228"
         style="fill:#ffffff;fill-opacity:1;fill-rule:nonzero;stroke:none"
         d="m 7635.38,11254.3 10.22,83 -44.15,10 c -68.1,41.5 -725.55,118 -801.36,93.1 l -44.4,0.4 -9.97,-83.1 c -4.34,-32.6 191.82,-91.1 437.49,-119.6 245.67,-28.6 446.99,-22.6 452.17,16.2" /><path
         id="path230"
         style="fill:#ffffff;fill-opacity:1;fill-rule:nonzero;stroke:none"
         d="m 7194.26,11334.1 c -245.74,28.5 -442.1,76.3 -438.57,106.7 3.52,30.3 205.6,31.8 451.35,3.2 245.74,-28.6 442.09,-76.3 438.56,-106.7 -3.52,-30.3 -205.6,-31.8 -451.34,-3.2" /><path
         id="path232"
         style="fill:#ffffff;fill-opacity:1;fill-rule:nonzero;stroke:none"
         d="m 7552.32,11375.6 6.27,52.2 -34.33,8.4 c -53.96,27.9 -569.71,87.8 -628.64,73 l -34.93,-0.3 -6.28,-52.2 c -4.09,-35.3 150.1,-72.8 342.82,-95.2 192.72,-22.4 350.99,-21.2 355.09,14.1" /><path
         id="path234"
         style="fill:#ffffff;fill-opacity:1;fill-rule:nonzero;stroke:none"
         d="m 7205.34,11431.4 c -192.72,22.4 -347.02,57.1 -344.65,77.5 2.37,20.5 160.53,18.8 353.24,-3.6 192.73,-22.4 347.03,-57.1 344.66,-77.5 -2.37,-20.4 -160.53,-18.8 -353.25,3.6" /><path
         id="path236"
         style="fill:#c66c67;fill-opacity:1;fill-rule:nonzero;stroke:none"
         d="m 5792.98,14525.6 c 18.57,14.7 32.3,32.4 42.01,54 7.34,16.4 31.25,2 23.98,-14.2 -10.51,-23.4 -26.33,-43.8 -46.45,-59.7 -13.93,-11.1 -33.58,8.7 -19.54,19.9" /><path
         id="path238"
         style="fill:#ff867a;fill-opacity:1;fill-rule:nonzero;stroke:none"
         d="m 4666.49,13006.4 c 0,0 -777.38,-1803.2 -1061.37,-2790.4 -131.06,-455.55 64.75,-792.84 544.02,-804.67 1641.49,-40.53 2626.44,1045.57 2563.88,1341.37 -62.57,295.9 -2025.13,-369.7 -2025.13,-369.7 l 696.47,1701.9 -717.87,921.5" /><path
         id="path240"
         style="fill:#ff867a;fill-opacity:1;fill-rule:nonzero;stroke:none"
         d="m 6552.2,10815.7 c 0,0 107.89,126.3 136.33,163.1 41.39,53.6 55.52,160.7 79.87,126.6 24.34,-34.1 -4.4,-245.9 -4.4,-245.9 -13.26,-0.9 223.11,1.8 324.27,19.1 61.68,10.7 137.6,43.3 149.77,14.1 12.17,-29.2 -23.65,-42.9 -23.65,-42.9 0,0 61.03,-0.9 66.95,-34.3 12.87,-72.6 -71.82,-104.5 -71.82,-104.5 0,0 68.17,-9.7 19.47,-56 -48.68,-46.2 -391.95,-150.9 -589.15,-102.2 -197.19,48.7 -136.33,255.6 -87.64,262.9" /><path
         id="path242"
         style="fill:#434a59;fill-opacity:1;fill-rule:nonzero;stroke:none"
         d="m 4846.44,10770.4 537.92,1314.5 c 0,0 -380.29,1287 -679.41,972.7 -364.75,-383.3 -560.36,-1043.3 -900.13,-1974.1 63.61,-122.5 352.39,-395.8 1041.62,-313.1" /><path
         id="path244"
         style="fill:#c66c67;fill-opacity:1;fill-rule:nonzero;stroke:none"
         d="m 4721.2,10398 c -0.04,0.2 -0.08,0.3 -0.12,0.5 -2.4,8.2 -11.04,13 -19.3,10.6 -267.81,-77.8 -425.93,-297.6 -432.53,-306.9 -4.96,-7 -3.32,-16.8 3.7,-21.7 7.02,-5 16.74,-3.4 21.72,3.7 1.56,2.2 158.73,220.3 415.79,294.9 8.12,2.4 12.86,10.8 10.74,18.9" /><path
         id="path246"
         style="fill:#434a59;fill-opacity:1;fill-rule:nonzero;stroke:none"
         d="m 5544.18,14585.1 c 15.16,39.5 29.6,71.8 72.51,87 12,4.2 20.61,-9.5 8.73,-21.1 -32.76,-32.2 -43.75,-41.5 -64.08,-78.6 -9.06,-16.6 -25.98,-10.3 -17.16,12.7" /><path
         id="path248"
         style="fill:#434a59;fill-opacity:1;fill-rule:nonzero;stroke:none"
         d="m 5776.95,14765.7 c -21.49,1.7 -39.89,-10.2 -55.36,-21.3 -10.33,-7.4 -10.08,-22.4 6.07,-18.3 44.5,11.2 41.34,15.6 63.73,17.9 15.86,1.6 10.09,19.8 -14.44,21.7" /><path
         id="path250"
         style="fill:#434a59;fill-opacity:1;fill-rule:nonzero;stroke:none"
         d="m 5640.35,14554.1 c 6.6,-9.9 6.7,-21.4 0.22,-25.8 -6.48,-4.3 -17.08,0.3 -23.69,10.2 -6.6,9.9 -6.7,21.4 -0.21,25.7 6.47,4.4 17.08,-0.2 23.68,-10.1" /><path
         id="path252"
         style="fill:#434a59;fill-opacity:1;fill-rule:nonzero;stroke:none"
         d="m 5797.88,14675.6 c 6.6,-9.9 6.7,-21.4 0.22,-25.7 -6.48,-4.4 -17.09,0.2 -23.69,10.1 -6.6,9.9 -6.7,21.4 -0.22,25.7 6.48,4.4 17.09,-0.2 23.69,-10.1" /><path
         id="path254"
         style="fill:#f27c79;fill-opacity:1;fill-rule:nonzero;stroke:none"
         d="m 13578,11800.3 c 0,0 -1391.6,-2142.18 -1265.5,-2669.71 126.2,-527.53 665.1,-312.69 1005.4,27.96 340.3,340.66 856.3,1627.25 856.3,1627.25 l -596.2,1014.5" /><path
         id="path256"
         style="fill:#404859;fill-opacity:1;fill-rule:nonzero;stroke:none"
         d="m 11849,2807.5 c 12.6,20.8 26.4,221.2 30.3,230.3 17,39.4 230.8,-54.8 239.1,-152 15.6,-182.2 147,-109.9 157.3,-51.3 58.5,-109.1 -56.6,-443.1 -135.7,-477.4 -151.2,-65.6 -352.9,-333.4 -738.1,-256 -147.5,29.6 335.4,521.8 447.1,706.4" /><path
         id="path258"
         style="fill:#404859;fill-opacity:1;fill-rule:nonzero;stroke:none"
         d="m 9227.82,4499.4 c 140.27,-6.3 187.54,0.2 277.48,43.9 6.06,3 69.4,189.8 75.93,197.3 28.24,32.2 288.59,-316.9 354.71,-263.8 22.08,-121.8 -184.96,-469 -270.74,-477.3 -164.02,-16 -952.89,446.7 -909.56,518.9 26.01,43.3 282.38,-10.5 472.18,-19" /><path
         id="path260"
         style="fill:#a12f53;fill-opacity:1;fill-rule:nonzero;stroke:none"
         d="m 13578,11800.3 c 0,0 -520.7,-801.6 -896.2,-1544.8 143.4,-208.3 468.4,-566.34 998.1,-544.81 258.2,486.41 494.3,1075.11 494.3,1075.11 l -596.2,1014.5" /><g
         transform="scale(1.04246)"
         id="g262"><path
           id="path264"
           style="fill:#f95873;fill-opacity:1;fill-rule:nonzero;stroke:none"
           d="m 16300,8832.85 c 0,0 -152,1835.95 -893.8,3018.35 -663.7,1057.8 -2254.9,1.6 -2381.2,-531.6 -126.3,-533.1 677.5,-1478.94 741.6,-2036.3 69.3,-603.24 -449.1,-883.19 -421,-1125.26 28.1,-242.08 1522.1,-14.75 1950.5,290.32 428.4,305.08 1003.9,384.49 1003.9,384.49" /></g><g
         transform="scale(1.0501)"
         id="g266"><path
           id="path268"
           style="fill:#b1d5de;fill-opacity:1;fill-rule:nonzero;stroke:none"
           d="m 16146.4,7648.84 c -211.6,-437.13 -679,-706.92 -1723.2,-896.61 -1044.2,-189.8 -2400.4,376.82 -2400.4,376.82 L 9726.62,4024.48 9060.31,4442.34 c 0,0 443.32,981.63 984.49,1941.54 541.2,959.81 1041.7,1912.64 1339.1,2065.12 410,210.32 3386.5,109.05 3386.5,109.05 l 1411,210.56 c 0,0 118.6,-802.61 -35,-1119.77" /></g><path
         id="path270"
         style="fill:#b1d5de;fill-opacity:1;fill-rule:nonzero;stroke:none"
         d="m 13382.8,7231.8 c 0,0 -149.4,-1264.3 -230.2,-1680.6 -272.3,-1402.6 -788.2,-2812.7 -788.2,-2812.7 l -601.9,72.7 c 0,0 228.4,4011.4 301.8,4350.2 73.5,338.8 954.4,985.35 1318.5,70.4" /><g
         transform="scale(1.21672)"
         id="g272"><path
           id="path274"
           style="fill:#ff867a;fill-opacity:1;fill-rule:nonzero;stroke:none"
           d="m 12806,10488.8 c 0,0 1488.8,-178.7 2148.6,-524.55 852.2,-446.72 1345.4,-2334.26 1093.3,-2396.47 -270.2,-66.68 -857.7,1459.4 -1366.7,1698.99 -418.8,197.18 -1140.2,182.77 -1657,461.84 -270.4,145.99 -218.2,760.19 -218.2,760.19" /></g><path
         id="path276"
         style="fill:#404859;fill-opacity:1;fill-rule:nonzero;stroke:none"
         d="m 13852.4,13199.4 c 0,0 -80.3,22.8 -119.3,89.9 -39,67.2 -75.5,163 5.1,202.5 80.7,39.4 256,38.9 303.4,57.9 47.5,18.9 68.9,45.9 109.3,36.3 40.4,-9.6 55.4,-76.5 55.4,-76.5 0,0 62.8,13.4 90.5,-17.9 27.6,-31.3 127.2,-298.6 132.1,-392.1 4.9,-93.5 -44,-119.8 -102.4,-133.5 -58.5,-13.7 -474.1,233.4 -474.1,233.4" /><path
         id="path278"
         style="fill:#ff867a;fill-opacity:1;fill-rule:nonzero;stroke:none"
         d="m 14321.4,13151 325.4,-420.6 c 29.3,-69.5 -179,-323.8 -325.6,-281 -42.9,12.6 -176,450.1 -176,450.1 l 176.2,251.5" /><path
         id="path280"
         style="fill:#ff867a;fill-opacity:1;fill-rule:nonzero;stroke:none"
         d="m 14263.1,13166.4 c -14.6,50.7 -17.6,63.2 -22.9,81.9 -10.2,35.6 -14.5,92.9 45.7,82 87.6,-15.8 131.5,-208.4 47.6,-248 -62.2,-29.4 -56.8,36.9 -70.4,84.1" /><path
         id="path282"
         style="fill:#ff867a;fill-opacity:1;fill-rule:nonzero;stroke:none"
         d="m 14128.4,13319.3 232,-259.2 c 66.2,-79.9 57.2,-198.2 -21,-266.6 -62.4,-54.6 -109,-77.5 -206.5,-111.4 -81.2,-28.2 -156.6,26.1 -205.8,126.7 -63.7,130.4 -103.5,261.2 -125.6,332.9 -10.1,32.5 -18.5,91.1 -8.6,120.9 15.8,47.6 51.8,107.5 104.2,102.8 112.8,-10.2 159.7,17.5 231.3,-46.1" /><path
         id="path284"
         style="fill:#404859;fill-opacity:1;fill-rule:nonzero;stroke:none"
         d="m 13936.5,13038.9 c -25.6,-13.7 -124.8,35.3 -112.8,-68 2.8,-24.1 39.6,-280 106.7,-352 55,-58.9 178.1,-42.2 242.8,-16.4 64.7,25.7 129.7,113.9 155.1,169.5 45.4,99.1 12.3,160.8 -7.3,223 -32.3,102 -95.5,313.8 -121.9,298.6 -3.8,-2.2 -24,-24.5 -16.8,-35.2 37.2,-54.8 64.1,-294.7 20.1,-306.8 -39.3,-10.8 -44.7,126.1 -144.4,131.1 -30.6,1.5 -70.2,-16.6 -121.5,-43.8" /><path
         id="path286"
         style="fill:#ffffff;fill-opacity:1;fill-rule:nonzero;stroke:none"
         d="m 14562.4,12842.7 c 0,0 34.6,-124.7 -14.4,-202.9 -89.7,-143.1 -171.3,-173.6 -171.3,-173.6 0,0 -101.2,63.6 -131,126.9 -34.4,-14.1 -74.5,-115.7 -71.3,-205.5 3.3,-91.8 45.2,-154.2 45.2,-154.2 l 152.6,155.4 c 0,0 186.2,-0.6 272.1,-75 0,0 150,193.2 130,392.8 -4.9,48.3 -211.9,136.1 -211.9,136.1" /><path
         id="path288"
         style="fill:#ffffff;fill-opacity:1;fill-rule:nonzero;stroke:none"
         d="m 13856.6,12987.1 c 0,0 126.3,25.3 189.4,52.8 0,0 9.1,-112.3 -99.3,-138 -65.3,-15.4 -90.1,85.2 -90.1,85.2" /><path
         id="path290"
         style="fill:#f27c79;fill-opacity:1;fill-rule:nonzero;stroke:none"
         d="m 13042.6,9677.23 c 0,0 1023.3,-561.26 1191.5,-851.78 168.2,-290.52 -913.8,-217.77 -1566.2,-35.4 -652.4,182.35 -114.6,902.47 374.7,887.18" /><path
         id="path292"
         style="fill:#f27c79;fill-opacity:1;fill-rule:nonzero;stroke:none"
         d="m 14177.3,8892.75 c 0,0 257.9,-295.44 309.8,-436.48 51.9,-141.06 -120.3,-465.77 -154.9,-465 -125.7,2.8 -155.3,396.12 -155.3,396.12 0,0 -195.6,256.62 -283.6,316.6 -88.1,59.98 128.8,288.78 284,188.76" /><g
         transform="scale(1.25126)"
         id="g294"><path
           id="path296"
           style="fill:#ff867a;fill-opacity:1;fill-rule:nonzero;stroke:none"
           d="m 15467.6,7459.05 c 0,0 -23,-135.96 77.8,-187.88 48.7,-25.05 322.3,-114.57 349.8,-84.02 27.5,30.55 -97.7,88.59 -88.5,94.71 9.1,6.1 310.5,-46.92 375.7,-12.22 117.6,62.62 -461.3,259.68 -546.9,265.79 -85.5,6.1 -189.4,-36.67 -167.9,-76.38" /></g><g
         transform="scale(1.07656)"
         id="g298"><path
           id="path300"
           style="fill:#f95873;fill-opacity:1;fill-rule:nonzero;stroke:none"
           d="m 16137.8,11538.3 c -772.8,209 -1902.2,371.2 -1902.2,371.2 0,0 178.7,-749.3 484.3,-914.2 367.8,-198.6 886,-337.4 1294,-415.5 69.9,101 286.1,606.2 123.9,958.5" /></g><g
         transform="scale(1.01005)"
         id="g302"><path
           id="path304"
           style="fill:#a12f53;fill-opacity:1;fill-rule:nonzero;stroke:none"
           d="m 16275.4,11454.5 c -1.3,0 -2.7,0.1 -4.1,0.4 -18.8,3.4 -464.7,85.4 -642.7,209.3 -181.9,126.8 -227.8,431.3 -229.5,444.2 -1.8,12.4 6.8,24 19.2,25.8 12.3,1.8 23.9,-6.9 25.7,-19.3 0.4,-2.9 44.9,-298 210.6,-413.4 170,-118.4 620.4,-201.1 624.8,-202 12.4,-2.2 20.6,-14 18.3,-26.4 -2,-10.9 -11.5,-18.6 -22.3,-18.6" /></g><path
         id="path306"
         style="fill:#c66c67;fill-opacity:1;fill-rule:nonzero;stroke:none"
         d="m 13504.4,9382.11 c -2.6,0 -5.2,0.44 -7.8,1.36 -533.1,190.81 -760.9,110.67 -763.2,109.84 -11.7,-4.44 -25,1.56 -29.5,13.38 -4.4,11.82 1.5,24.99 13.3,29.5 9.6,3.69 242.7,88.12 794.9,-109.54 11.9,-4.27 18.1,-17.39 13.8,-29.31 -3.3,-9.38 -12.1,-15.23 -21.5,-15.23" /><path
         id="path308"
         style="fill:#5679bf;fill-opacity:1;fill-rule:nonzero;stroke:none"
         d="m 12011,6633 c -5.9,0 -11.8,2.2 -16.3,6.8 -8.9,9 -8.8,23.5 0.2,32.4 272.7,269.4 617.6,869.7 621.1,875.7 5.6,9.9 17.6,14.1 28.1,10.1 206.7,-79.5 742.1,-302.8 747.5,-305.1 11.7,-4.8 17.2,-18.3 12.3,-30 -4.8,-11.7 -18.3,-17.2 -29.9,-12.3 -5.3,2.2 -510.5,212.9 -728.1,297.5 -58.8,-100.8 -367.9,-620.7 -618.8,-868.5 -4.5,-4.4 -10.3,-6.6 -16.1,-6.6" /><path
         id="path310"
         style="fill:#5679bf;fill-opacity:1;fill-rule:nonzero;stroke:none"
         d="m 12635.9,7513.6 c -2.8,0 -5.7,0.5 -8.5,1.6 -226.6,90.4 -377,251.3 -383.3,258.1 -8.6,9.3 -8.1,23.8 1.2,32.4 9.3,8.6 23.8,8 32.4,-1.3 1.5,-1.6 150,-160.2 366.7,-246.6 11.8,-4.6 17.5,-18 12.8,-29.7 -3.6,-9 -12.2,-14.5 -21.3,-14.5" /><g
         transform="scale(1.01402)"
         id="g312"><path
           id="path314"
           style="fill:#84c0ce;fill-opacity:1;fill-rule:nonzero;stroke:none"
           d="m 15838.6,8806.02 c -300.1,0 -542.3,33.59 -545.9,34.08 -12.3,1.76 -21,13.2 -19.2,25.57 1.8,12.36 13.4,20.89 25.5,19.22 5.2,-0.74 518.6,-71.79 973.5,-5.22 12.3,1.9 23.9,-6.75 25.6,-19.11 1.9,-12.36 -6.7,-23.85 -19,-25.65 -147.1,-21.53 -300.2,-28.89 -440.5,-28.89" /></g><g
         transform="scale(1.11833)"
         id="g316"><path
           id="path318"
           style="fill:#c66c67;fill-opacity:1;fill-rule:nonzero;stroke:none"
           d="m 16277.1,9931.67 c -4.7,0 -9.6,1.66 -13.4,5.01 -147.5,127.82 -402.8,170.52 -405.4,171.02 -11.2,1.8 -18.8,12.3 -17,23.5 1.9,11.2 12.1,18.8 23.6,17 10.9,-1.8 269.2,-44.9 425.7,-180.52 8.5,-7.41 9.4,-20.37 2.1,-28.93 -4.1,-4.68 -9.9,-7.08 -15.6,-7.08" /></g></g></g></svg>